<?xml version="1.0" standalone="no"?>
<svg version="1.1" id="Layer_1" xmlns="http://www.w3.org/2000/svg" xmlns:xlink="http://www.w3.org/1999/xlink" x="0px" y="0px" width="595.28px" height="595.28px" viewBox="0 0 595.28 595.28" enable-background="new 0 0 595.28 595.28" xml:space="preserve">
<path id="color_x5F_2" fill="#FBC02D" d="M251.354,299.156c-4.918,0.281-9.844,0.645-14.745,1.176
	c7.994-1.79,14.097-2.857,15.988-3.176c-0.038,0.875-0.057,1.749-0.064,2.623C252.532,299.409,252.194,299.108,251.354,299.156z
	 M225.796,428.6c-2.827,3.717-5.375,7.649-7.736,11.729L225.796,428.6z M318.546,315.721c0,0-1.625-0.438-3.99-1.063
	c2.723,0.823,5.462,1.546,8.165,2.201L318.546,315.721z M310.749,445.49c0.412,0.013,0.825,0.014,1.237,0.024
	c-0.309-0.555-0.699-1.387-1.069-2.528C310.858,443.82,310.802,444.654,310.749,445.49z M308.345,419.941
	c0.925,0.078,1.851,0.16,2.776,0.23c0.058-0.311,0.092-0.451,0.092-0.451L308.345,419.941z M133.94,431.781
	c0.176-1.769,0.402-3.54,0.673-5.311l-1.4,4.583L133.94,431.781z M141.88,440.463c0,1.25,0,1.258,0,1.258l-0.771,3.083
	C144.036,443.574,143.585,441.951,141.88,440.463z M305.979,314.099c0,0.108-0.005,0.209-0.005,0.318h-2
	c0-0.38,0.014-0.735,0.019-1.105c-2.009-0.828-3.961-1.745-5.848-2.748c-0.36-0.074-0.674-0.134-0.932-0.177
	c-0.922-0.154-1.844,0.943-2.75,2.828c-2.467,23.292-12.639,45.058-19.827,67.175c0.831,1.913,1.722,3.801,2.703,5.648
	c0.489,0.92-2.332,1.842-2.898,0.776c-0.772-1.454-1.485-2.932-2.161-4.425c-0.586,0.006-1.032-0.193-0.881-0.666
	c0.082-0.256,0.167-0.512,0.25-0.769c-4.947-11.494-7.426-23.988-10.665-36.024c-3.94-14.643-8.559-29.788-8.451-45.087
	c-0.052,0.495-0.673,1.082-1.516,1.13c-10.782,0.615-21.847,1.516-32.48,3.967c-6.139,1.782-12.412,3.858-18.197,6.224
	c-14.207,6.815-25.87,18.024-34.365,31.249v1.003h-0.636c-1.125,1.797-2.198,3.625-3.205,5.488
	c-7.845,14.507-12.482,31.058-17.008,46.882c-3.56,12.447-7.633,25.599-8.522,38.656l0.998,0.999
	c0.697,0.297,1.388,0.598,2.057,0.917c0.759-1.096,2.223-2.765,2.223,0.695c0,0.15,0,0.282,0,0.422c0.02,0.01,0.041,0.02,0.061,0.03
	c3.597,1.953,6.939,5.388,1.804,7.853c-0.627,0.301-1.275,0.565-1.932,0.813c8.928,3.327,19.252,3.519,28.499,4.053
	c4.937,0.285,9.854,0.751,14.771,1.2c10.651-0.003,20.761,0.193,24.21,0.268c7.112-14.202,15.098-27.693,27.902-37.474
	c-23.834-1.61-47.521-4.879-71.363-6.409c-1.955-0.125,0.097-1.635,1.148-1.567c7.52,0.482,15.023,1.147,22.522,1.871
	c0.012-0.057,0.021-0.112,0.043-0.174c6.921-18.969,17.222-36.508,22.9-55.953c0.349-1.194,3.308-1.553,2.928-0.253
	c-5.732,19.627-16.089,37.333-23.074,56.478c-0.021,0.058-0.053,0.112-0.087,0.165c15.937,1.569,31.852,3.376,47.836,4.4
	c0.564,0.036,1.315,0.453,0.579,0.99c-2.896,2.115-5.524,4.432-7.97,6.89l5.721,1.06c5.294-0.013,10.765,0.16,15.247,2.552
	c1.504,0.803,2.906,1.875,4.168,3.138c2.882-1.146,6.1-1.736,8.922-0.696c2.04-1.747,4.604-2.55,7.249-1.538l0.38-0.076
	c1.267-1.452,3.005-2.431,4.788-2.333l2.08-1.04l1.227,2.658c1.798,1.688,3.098,4.016,4.058,6.437l3.555,1.185
	c1.995-0.488,4.162-0.358,4.161,2.105c-0.002,3.277-2.34,5.998-4.945,7.752l0.75,1.875c5.936,0.885,11.886,1.388,17.844,1.651
	c0.381-5.873,0.897-11.646,2.338-17.266c0.22-2.625,0.428-4.514,0.597-5.812c-5.372-0.399-10.739-0.902-16.099-1.579
	c-0.827-0.104-1.02-0.525-0.867-0.962l-0.617-0.044l0.042-0.131c-0.474,0.004-0.829-0.115-0.776-0.419
	c1.297-7.586,3.975-15.066,6.243-22.397c3.732-12.062,7.634-24.07,11.594-36.058c3.661-11.081,7.365-22.147,11.159-33.183
	c0.812-2.361,1.479-5.401,2.391-8.245C317.999,317.943,311.831,316.33,305.979,314.099z M290.958,433.576l-1.167,5.446
	c0.71-0.958,1.234-2.043,1.433-3.188C291.338,435.179,291.444,434.144,290.958,433.576z"></path>
<path id="color_x5F_1" d="M273.174,265.145c-0.031,1.237-2.965,1.71-2.928,0.249c0.051-1.986-1.141-3.7-2.53-5.009
	c-0.535-0.504,0.297-1.237,0.702-1.427c0.641-0.3,1.425-0.324,1.958,0.179C272.059,260.721,273.234,262.789,273.174,265.145z
	 M308.096,278.113c-0.87-0.291-3.494,0.994-2.311,1.39c8.016,2.681,6.285-10.829,6.484-15c0.056-1.179-2.851-0.58-2.896,0.37
	c-0.104,2.17,0.021,4.349-0.032,6.521C309.318,272.286,308.752,278.333,308.096,278.113z M298.284,261.548
	c-0.661,0.894-1.103,1.886-1.517,2.912c-0.592,1.462,2.313,1.276,2.74,0.22c0.414-1.025,0.856-2.017,1.517-2.912
	c0.437-0.591-0.37-1.029-0.843-1.068C299.438,260.64,298.723,260.954,298.284,261.548z M316.895,270.179
	c0.361-0.878,0.802-1.721,1.163-2.6c0.648-1.58-2.27-1.638-2.785-0.384c-0.36,0.879-0.802,1.721-1.163,2.6
	C313.46,271.375,316.378,271.433,316.895,270.179z M303.606,253.845c-1.974-0.898-4.064-1.276-6.222-1.039
	c-0.508,0.056-1.48,0.333-1.67,0.896c-0.199,0.59,0.948,0.496,1.209,0.467c1.488-0.164,3.008,0.344,4.343,0.952
	C302.009,255.459,304.676,254.332,303.606,253.845z M295.757,289.34c-2.678-0.858-3.871-3.328-3.449-5.876
	c-0.035-0.057-0.021-0.124,0.037-0.197c0.065-0.334,0.151-0.67,0.274-1.002c0.282-0.764,3.081-1.084,2.863-0.493
	c-0.094,0.254-0.169,0.518-0.23,0.785c2.603,0.859,5.155,1.863,7.764,2.706c0.154,0.05,0.327,0.136,0.245,0.332
	C302.103,288.357,298.779,290.309,295.757,289.34z M295.135,284.486c0.116,1.065,0.553,2.075,1.436,2.812
	c0.546,0.455,1.512,1.159,2.284,0.999c0.563-0.116,1.15-1.31,1.45-1.995C298.569,285.731,296.855,285.099,295.135,284.486z
	 M551.564,300.193c0.119,0.145,0.17,0.34,0.109,0.595c-0.074,0.314-0.115,0.636-0.154,0.956c-3.09,25.278-3.551,51.088-5.078,76.493
	c-0.943,15.703-1.871,31.406-2.839,47.108c-0.462,7.482-0.464,15.211-1.521,22.651c0.314,0.135,0.578,0.301,0.764,0.513
	c0.964,1.105-1.788,2.267-2.654,1.275c0.621,0.71,0.118,0.263-0.822,0.254c-1.034-0.009-2.068-0.003-3.102,0.013
	c-3.163,0.049-6.325,0.141-9.486,0.244c-8.754,0.286-17.504,0.643-26.255,1.002c-8.507,0.35-17.013,0.72-25.521,1.03
	c-2.115,0.077-5.964,0.878-8.671,0.486c-0.701,0.154-1.443,0.057-1.569-0.448c-0.049-0.024-0.104-0.042-0.151-0.068
	c-0.433-0.235-0.494-0.538-0.342-0.829c-0.182,0.04-0.339,0.06-0.442,0.047c-13.423-1.641-25.643-8.409-37.711-14.176
	c-0.47,2.779-1.202,5.537-2.22,8.252c0.344,0.015,0.67,0.124,0.672,0.478c4.34,0.269,8.68,0.538,13.02,0.807
	c0.928,0.058,1.031,0.512,0.752,0.967c6.733,2.999,12.528,7.682,18.846,11.459c0.324,0.022,0.402,0.108,0.322,0.227
	c0.341,0.345,0.057,0.755-0.438,1.061c-0.07,1.123-0.14,2.246-0.21,3.37c-0.007,0.118-0.06,0.227-0.145,0.327
	c1.061,0.134-1.439,1.189-2.025,1.168c-23.544-0.859-47.134-0.194-70.629-2.133c-0.335,0.101-0.663,0.14-0.896,0.076
	c-0.244-0.066-0.482-0.143-0.725-0.214c-0.464-0.041-0.929-0.075-1.393-0.118c-0.511-0.047-0.5-0.216-0.252-0.411
	c-5.992-2.094-11.26-5.712-15.936-10c-0.428,0.179-0.858,0.307-1.083,0.298c-34.573-1.375-69.284,0.826-103.75-2.628
	c-0.702,0.338-1.499,0.571-2.399,0.674c-1.87,0.215-3.431-0.4-4.73-1.472c-0.168-0.021-0.336-0.036-0.503-0.057
	c-0.616-0.078-0.541-0.322-0.192-0.579c-0.692-0.707-1.302-1.542-1.834-2.442c-9.944,8.533-25.145,8.354-36.488,2.831
	c-0.289-0.141,1.98-1.34,2.734-0.973c9.869,4.804,22.883,5.806,31.549-1.945c0.273-0.245,1.188-0.45,1.879-0.504
	c-1.075-1.987-1.81-4.189-2.274-5.925c-0.304-1.138,2.594-1.914,2.898-0.776c0.368,1.377,2.697,6.85,5.215,9.194
	c1.188,0.143,2.377,0.278,3.565,0.407c0.35-0.356,0.683-0.866,0.994-1.554c2.18-4.817-0.081-11.346-2.814-15.506
	c-0.316-0.48-0.647-0.925-0.987-1.35c-0.28,0.148-0.556,0.299-0.824,0.451c-1.472,0.832-3.02-0.84-1.311-1.808
	c0.192-0.109,0.393-0.216,0.593-0.324c-6.511-6.119-16.27-4.732-25.039-5.203c-0.022-0.001-0.038-0.005-0.06-0.007
	c-1.481,1.653-2.865,3.382-4.205,5.144c-2.827,3.717-5.375,7.649-7.736,11.729c-2.489,4.3-4.793,8.747-7.019,13.265
	c-0.141,0.285-0.529,0.508-0.979,0.654c-0.251,0.339-0.68,0.601-1.245,0.616c-14.1,0.369-28.096-1.739-42.147-2.583
	c-9.459-0.568-19.769-1.11-28.629-4.96c-6.029,1.421-12.752,1.352-18.592,1.45c-10.909,0.182-21.74-0.542-32.615-1.275
	c-3.534-0.238-40.82-2.696-35.33-10.323c3.072-4.269,10.463-5.373,15.23-6.113c3.457-0.536,7.811-1.313,11.76-1.007
	c-3.031-2.83-5.479-6.207-7.494-9.876c-6.943,6.977-18.865-2.122-19.735-10.82c-0.411-4.107,2.471-10.322,7.48-9.46
	c5.178,0.891,8.667,5.845,10.964,10.352c0.106,0.1,0.195,0.221,0.251,0.373c0.069,0.19,0.146,0.381,0.217,0.571
	c0.073,0.153,0.149,0.308,0.221,0.458c0.048,0.103,0.063,0.201,0.066,0.297c3.124,8.061,7.823,16.296,15.688,20.475
	c7.946,4.222,17.345,3.997,25.773,1.337c14.036-4.429,17.219-19.222,19.762-32.323c-3.033,1.916-7.02,2.793-10.218,3.331
	c-6.21,1.044-12.336,0.657-18.606,0.507c-8.828-0.211-17.854-0.401-26.476-2.491c-1.974-0.478-7.559-2.254-9.579-4.955
	c-0.605,0.384-1.688,0.757-2.154,0.637c-4.807-1.238-15.328-4.053-17.638,2.602c-1.405,4.047,0.124,8.641,2.048,12.266
	c3.156,5.946,14.85,20.522,21.768,11.451c0.506-0.662,3.387-0.986,2.67-0.046c-8.804,11.541-22.938-1.908-27.335-10.629
	c-2.249-4.459-4.479-11.294-0.237-15.354c5.226-5.001,14.048-3.352,20.391-1.754c-0.308-0.711-0.357-1.477-0.034-2.291
	c1.653-4.172,8.178-5.385,11.979-6.208c5.007-1.083,10.497-1.819,15.622-1.247c1.584,0.177-1,1.536-1.809,1.446
	c-3.641-0.406-28.814,2.151-21.666,8.708c4.524,4.149,11.32,4.916,17.187,5.497c6.629,0.657,13.28,0.817,19.936,0.954
	c4.861,0.1,9.563,0.387,14.377-0.523c3.123-0.59,7.589-1.379,9.697-4.021c0.241-0.302,0.488-0.692,0.71-1.126
	c0.069-0.354,0.14-0.708,0.21-1.058c0.052-0.256,0.201-0.475,0.406-0.652c0.234-1.131,0.098-2.268-0.848-2.95
	c-4.037-2.915-10.951-2.798-15.71-3.159c-4.313-0.328-8.691-0.39-12.985-0.951c-2.271,2.71-4.668,5.259-7.271,7.461
	c-0.338,0.286-3.084,1.064-2.62-0.091c4.469-11.13,8.56-22.406,12.891-33.59c-2.903-0.043-5.797-0.274-8.694-0.463
	c-1.315-0.086-6.059-0.946-6.959-0.255c-0.322,0.247-3.09,1.094-2.62-0.092c3.476-8.763,9.257-16.965,14.055-25.033
	c2.262-3.803,4.534-7.601,6.801-11.401V131.417v-1v-1h212v1v1v87.831h-2v-87.831h-208v191.191c0.908-1.452,3.427-4.452,3.556-6.074
	c-0.139-0.191-0.031-0.443,0.527-0.734c0.01-0.005,0.02-0.01,0.029-0.015c0.408-0.213,1.52-0.579,2.057-0.283
	c0.528,0.014,0.91,0.201,0.771,0.618c-1.914,5.724-2.108,12.32-2.72,18.28c-0.24,2.338-0.469,4.677-0.686,7.017h49.4
	c9.909-14.293,22.1-26.441,38.446-33.103c10.979-4.474,22.548-6.714,34.255-7.982c4.901-0.531,9.827-0.895,14.745-1.176
	c0.84-0.048,1.178,0.252,1.179,0.622c0.008-0.874,0.026-1.748,0.064-2.623c0.001-0.031,0-0.061,0.002-0.091
	c0.049-1.065,2.968-1.619,2.908-0.32c-0.76,16.627,4.627,33.006,8.771,48.916c2.687,10.315,4.973,20.958,8.812,30.959
	c7.699-22.605,17.845-44.963,18.938-69.093c0.016-0.35,0.349-0.643,0.781-0.834c0.021-0.034,0.043-0.068,0.069-0.102
	c0.37-3.212,0.641-6.394,1.863-9.451c-5.78-1.321-11.353-5.124-16.428-8.789c-0.149-0.108-0.138-0.248-0.03-0.393
	c-0.028-0.028-0.047-0.059-0.046-0.096c0.273-6.292,6.972-9.149,12.313-10.37c8.523-1.947,15.793,3.46,23.604,5.784
	c1.905-3.973,3.459-8.079,4.819-12.255v-1.844h0.599c0.771-2.475,1.487-4.97,2.178-7.471c-0.388,0.667-1.844,1.177-2.514,0.699
	c-0.875-0.625-1.908-0.89-2.972-0.724c-0.519,0.081-1.417-0.169-1.313-0.854c0.109-0.728,1.001-1.022,1.61-1.117
	c1.668-0.26,3.547,0.112,4.931,1.101c0.239,0.171,0.344,0.356,0.354,0.54c0.625-2.272,1.233-4.55,1.847-6.821
	c-1.027-0.146-2.043-0.315-3.039-0.508c-9.18-1.778-15.634-7.023-23.303-11.692c-3.467,6.249-6.722,12.669-11.877,17.227
	c-2.58,3.178-4.873,4.875-6.32,5.723c-0.308,1.142-3.082,1.52-2.897,0.161c0.046-0.342,0.074-0.689,0.087-1.039
	c-0.586-0.042-0.872-0.272-0.003-0.642c-0.05-2.104-0.737-4.223-2.348-5.659c-1.724-1.538-4.692-2.111-6.622-0.763
	c-0.03,0.021-0.062,0.041-0.091,0.063c-0.433,0.321-0.81,0.74-1.103,1.274c-2.099,3.826,0.189,8.954,4.451,9.892
	c1.203,0.265,0.479,1.173-0.465,1.622c0.311,0.086,0.447,0.274,0.209,0.597c-5.785,7.853-8.265,17.523-11.902,26.442
	c-0.369,0.907-3.238,1.249-2.889,0.393c2.517-6.172,4.496-12.684,7.359-18.732c-0.24-0.052-0.425-0.163-0.492-0.355
	c-2.701-7.695-6.787-15.373-6.981-23.695c-0.128-5.472,0.5-11.163,2.236-16.37c1.54-4.62,3.663-8.861,7.806-11.619
	c1.559-1.038,3.551-0.888,5.289-0.683c0.18,0.021,0.359,0.03,0.537,0.033c0.172-0.302,0.121-0.683-0.457-1.146
	c-1.667-1.333-3.333-4.333-2.667-6.667s5.667,3.667,5.667,3.667s2.333-5,5.333-5.667c2.298-0.511,0.491,3.861-0.481,5.938
	c0.082-0.066,0.164-0.134,0.244-0.199c4.213-3.422,8.783-5.95,13.595-7.21c0.107-0.067,0.212-0.133,0.31-0.195
	c1.98-1.26,4.641-1.251,7.404-0.666c3.121,0.12,6.313,0.797,9.554,2.167c11.827,5,20.902,14.843,32.97,19.331
	c1.178,0.438-1.307,1.427-1.75,1.399c-2.521-0.156-5.043-0.313-7.565-0.469c3.253,2.215,6.954,3.122,10.779,3.793
	c2.258,0.111,4.275,0.112,4.275,0.112s-0.186,0.201-0.495,0.514c0.146,0.024,0.293,0.048,0.439,0.072
	c0.466,0.079,1.29,0.462,0.848,1.086c-3.713,5.243-10.844,5.025-16.778,5.731c2.287,2.551,5.384,3.688,8.929,3.77
	c1.963,0.046,0.238,1.968-1.049,1.938c-0.377-0.009-0.746-0.046-1.117-0.076c-4.064,1.537-8.551,1.793-12.936,1.413
	c-1.667,6.204-3.273,12.463-5.413,18.528v42.053h-2v-36.808c-2.323,5.732-5.372,12.266-10.414,15.813
	c-0.516,0.363-1.032,0.681-1.548,0.977c-0.072,3.08-0.287,5.886-0.506,8.599c-0.197,2.442-0.398,4.947-0.486,7.66
	c2.776,1.145,5.646,2.127,8.536,3.001c2.723,0.823,5.462,1.546,8.165,2.201c0.617,0.149,1.233,0.298,1.846,0.44
	c0.542-1.391,1.171-2.677,1.945-3.732c0.375-0.513,2.459-0.871,2.705-0.445c0.978-0.085,2.072,0.106,0.803,0.722
	c1.297-0.629,3.212-0.212,5.24-0.073c3.901,0.267,7.809,0.438,11.716,0.594c8.35,0.332,16.702,0.601,25.056,0.834
	c0.001-0.028-0.004-0.053,0-0.083c1.897-14.052,5.455-27.739,5.617-41.991c-1.07-0.031-1.129-1.242,0.287-1.733
	c2.97-1.031,6.069-1.626,9.222-1.869c2.198-6.53,6.041-12.695,10.294-18.044c3.563-4.48,7.721-9.106,13.094-11.368
	c5.471-4.285,14.659-8.313,21.172-6.911c1.428,0.307,3.479,1.04,5.574,2.09c2.531-1.508,5.594-2.424,8.438-1.263
	c0.502,0.205,0.966,0.477,1.4,0.789c1.752-0.759,3.772-1.125,5.496-0.301c0.661,0.316,1.249,0.754,1.75,1.275
	c3.116-0.905,6.919,0.292,7.997,3.623c0.318,0.985,0.308,1.858,0.068,2.621c12.801-1.171,25.676-2.356,38.523-1.505
	c0.76-0.467,1.953-0.475,2.251,0.174c0.173,0.015,0.346,0.025,0.519,0.041c0.879,0.079,0.265,0.519-0.506,0.849
	c-1.372,11.32,8.26,21.48,14.891,29.58c8.064,9.85,16.666,20.5,29.923,22.954c1.737,0.322,0.763,2.183-0.604,2.209
	c-0.534,0.01-1.068,0.016-1.604,0.025c1.055,0.682,2.14,1.318,3.227,1.948c1.008,0.099,1.844,0.324,2.325,0.758
	C551.804,299.443,551.792,299.849,551.564,300.193z M334.138,253.833c1.11-0.14,2.181-0.366,3.198-0.681
	c-0.065-0.013-0.134-0.019-0.199-0.033L334.138,253.833z M335.292,235.034c0.378,0.023,0.757,0.047,1.135,0.07
	c-0.092-0.045-0.183-0.093-0.274-0.139L335.292,235.034z M326.477,253.651c0.031,0.023,0.062,0.047,0.084,0.076
	c0.852,0.11,1.704,0.197,2.553,0.248C328.35,253.904,327.472,253.8,326.477,253.651z M268.395,270.352
	c0.051-0.018,0.104-0.034,0.158-0.05c-0.036-0.01-0.071-0.022-0.106-0.033L268.395,270.352z M325.287,253.544
	c0.098-0.016,0.193-0.028,0.287-0.036c-1.697-0.28-3.685-0.68-6.009-1.261C321.385,252.778,323.32,253.228,325.287,253.544z
	 M69.793,417.835c-0.932-1.91-1.765-3.879-2.516-5.874c-1.686-3.499-4.379-8.041-8.09-9.517c-4.245-1.688-5.749,4.676-4.621,7.795
	C56.564,415.762,64.605,425.263,69.793,417.835z M541.62,296.423c-11.931,0.142-23.869,0.099-35.781,0.839
	c-11.267,0.701-22.657,2.372-33.886,0.701c-0.599,0.208-1.251,0.304-1.551,0.086c-0.21-0.153-0.428-0.305-0.641-0.458
	c-0.141-0.027-0.281-0.046-0.421-0.074c-0.688-0.136-0.944-0.493-0.929-0.881c-4.479-3.122-9.44-6.239-13.699-9.944
	c-0.372,0.495-1.605,1.081-2.208,0.993c-7.354-1.075-14.735-0.413-22.055,0.63c14.362,2.603,28.163,7.877,41.872,12.741
	c0.108,0.039,0.202,0.082,0.281,0.128c0.697-0.183,1.498,0.05,1.758,0.492c0.45-0.015,3.042-0.101,3.885-0.13
	c3.068-0.109,6.136-0.241,9.203-0.378c9.014-0.402,18.026-0.838,27.04-1.251c8.592-0.394,17.185-0.799,25.782-1.071
	c0.841-0.027,2.437-0.252,4.178-0.42c-0.887-0.544-1.757-1.113-2.591-1.734C541.741,296.604,541.67,296.514,541.62,296.423z
	 M470.465,313.334c0.076-1.683,0.133-3.368,0.219-5.05c0.067-1.303-0.104-3.553,0.387-5.212c-0.146,0-0.29-0.018-0.422-0.064
	c-14.398-5.108-28.907-10.719-44.072-13.069c-0.321,1.371-0.245,3.79-0.32,4.646c-0.185,2.082-0.344,4.167-0.496,6.251
	c4.813,3.445,10.648,4.917,15.88,7.588c1.208,0.617-1.456,1.842-2.305,1.408c-4.513-2.305-9.394-3.771-13.772-6.268
	c-0.016,0.231-0.033,0.463-0.05,0.694c-0.235,3.368,0.429,8.855-1.104,11.967c-0.017,0.034-0.042,0.063-0.062,0.095
	c3.914,0.07,7.829,0.141,11.743,0.213c11.358,0.21,22.718,0.412,34.077,0.624c-0.15-0.178-0.17-0.427,0.034-0.756
	C470.623,315.721,470.43,314.109,470.465,313.334z M455.658,237.724c0.187,0.428,0.333,0.876,0.428,1.336
	c0.101,0.489,0.13,0.94,0.125,1.371c0.407,0.063,0.766,0.253,0.942,0.62c0.367,0.763,0.771,1.413,1.041,2.136
	C461.154,242.04,458.9,237.563,455.658,237.724z M449.979,245.103c-0.159,0.29-0.341,0.569-0.565,0.825
	c-1.21,1.375-2.943,1.805-4.662,1.652c-2.546,4.314-7.251,3.548-10.924,0.236c-1.929-1.739-5.402-7.12-8.271-7.049
	c-4.547,0.113-13.361,4.108-5.207,7.27c0.384,0.149,0.313,0.389,0.031,0.625c4.6,0.71,9.295,1.762,13.659,3.397
	c1.083,0.406,7.331,2.687,4.479,4.714c-0.007,0.005-0.015,0.009-0.021,0.014c5.518,3.863,7.558,12.094,10.342,17.776
	c4.603,9.394,13.69,14.996,22.019,20.851c12.266,2.291,24.568,0.019,36.893-0.461c10.805-0.42,21.602-0.547,32.406-0.715
	c-10.225-4.299-17.619-13.167-24.682-21.762c-6.892-8.386-16.604-18.89-15.195-30.639c-12.817-0.973-25.656,0.177-38.43,1.345
	c-1.049,1.417-3.02,2.252-4.955,2.431c-0.693,0.064-1.299-0.269-1.349-0.984c-0.029-0.417-0.198-0.834-0.411-1.242
	C453.97,244.696,452.015,245.276,449.979,245.103z M448.179,235.728c0.991,1.033,1.72,2.332,2.106,3.705
	c0.358,1.272,0.519,2.738,0.257,4.086c0.375,0.126,0.755,0.242,1.148,0.286c0.156,0.017,0.638-0.048,0.653-0.001
	c0.288-0.177,0.516-0.537,0.639-0.826c0.479-1.127,0.451-2.393,0.101-3.556C452.455,237.334,450.479,234.787,448.179,235.728z
	 M439.234,236.356c3.881,2.327,7.272,5.667,6.334,9.337c0.762,0.117,1.402-0.081,1.814-1.065c0.606-1.447,0.423-3.218-0.073-4.668
	c-0.552-1.613-1.55-3.236-3.108-4.046C442.484,235.022,440.791,235.478,439.234,236.356z M390.016,269.394
	c8.998-0.092,18.254,2.536,26.084,6.349c0.228,0.11,0.352,0.335,0.313,0.584c-2.035,13.226-3.817,26.558-6.467,39.676
	c-0.004,0.018-0.014,0.034-0.019,0.052c3.869,0.073,7.738,0.145,11.607,0.214c0.009-0.113,0.036-0.234,0.104-0.373
	c0.691-1.405,0.426-4.187,0.54-5.764c0.201-2.787,0.391-5.575,0.592-8.362c-0.053-0.04-0.109-0.072-0.163-0.112
	c-0.286-0.215-0.129-0.499,0.225-0.749c0.011-0.152,0.021-0.304,0.032-0.456c0.183-2.437-0.325-8.209,0.961-11.125
	c-0.098,0.015-0.194,0.031-0.291,0.046c-2,0.316-1.014-1.425,0.385-1.646c9.96-1.573,19.996-3.099,30.063-1.684
	c-2.835-2.565-5.315-5.415-7.054-8.747c-2.984-5.723-5.111-15.074-10.711-19.236c-3.58,1.567-7.938,1.8-11.65,1.973
	c-5.735,0.268-9.873,4.709-14.553,7.363c-2.144,1.216-4.525,1.844-6.915,2.345c-2.033,0.426-0.533-0.743,0.564-0.973
	c6.522-1.366,10.688-7.05,16.946-8.92c2.063-0.616,11.032-1.277,14.413-2.563c-0.313-0.175-0.623-0.352-0.956-0.495
	c-0.801-0.344,0.963-1.152,1.932-1.22c-1.615-2.308-6.58-3.237-8.852-3.844c-3.029-0.81-6.091-1.521-9.191-1.999
	c-0.241-0.037-0.121-0.182,0.164-0.353c-0.035-0.007-0.072-0.013-0.102-0.024c-6.027-2.337-4.416-6.288,0.878-8.385
	c4.835-1.915,9.214-2.81,12.982,1.124c2.22,2.316,4.852,5.848,8.005,6.898c1.411,0.47,2.201-0.619,2.545-1.963
	c-0.836-0.38-0.469-1.018,0.202-1.422c0.029-0.766-0.062-1.474-0.249-1.893c-0.825-1.837-2.134-3.394-3.727-4.626
	c-3.483-2.696-7.702-5.152-12.265-4.305c-4.313,0.8-8.776,2.407-12.483,4.936c0.277,0.44,0.018,1.127-0.984,1.423
	c-0.539,0.16-1.066,0.364-1.588,0.587c-0.027,0.024-0.059,0.046-0.085,0.071c-0.162,0.15-0.48,0.272-0.839,0.353
	c-5.32,2.685-9.637,8.385-12.797,13.015C394.601,259.581,391.731,264.293,390.016,269.394z M374.796,315.274
	c10.767,0.29,21.534,0.521,32.302,0.727c2.385-11.873,4.016-23.93,5.87-35.895c0.132-0.846,0.263-1.691,0.394-2.538
	c0.039-0.25,0.052-0.411,0.058-0.516c-1.841-0.863-3.738-1.627-5.659-2.282c-8.727-2.976-18.201-4.813-27.22-2.415
	c0.027,0.086,0.045,0.179,0.044,0.285c-0.124,14.339-3.715,28.101-5.623,42.233C374.941,315.019,374.881,315.152,374.796,315.274z
	 M323.594,329.255c-3.757,10.984-7.445,21.992-11.076,33.018c-3.819,11.602-7.602,23.218-11.191,34.893
	c-2.164,7.037-4.716,14.203-5.968,21.48c0.116-0.013,0.232-0.018,0.349-0.003c1.891,0.239,3.782,0.447,5.675,0.648
	c1.37-6.964,3.74-13.835,5.801-20.589c3.521-11.541,7.195-23.034,10.93-34.507c3.446-10.587,6.935-21.162,10.508-31.708
	c1.387-4.092,2.326-10.255,4.921-13.809c0.442-0.606,3.279-1.003,2.645-0.135c-0.025,0.036-0.053,0.092-0.078,0.134
	c0.546,0.072,0.779,0.295-0.086,0.715c2.044-0.992,6.797,0.088,9.623,0.243c28.381,1.561,56.851,1.901,85.263,2.515
	c13.944,0.301,27.89,0.578,41.834,0.882c4.321,0.094,8.642,0.185,12.962,0.307c0.734,0.021,1.592-0.036,2.445-0.042
	c0.572-1.66,1.247-3.215,2.1-4.495c-1.662-0.118-4.422,0-5.859-0.032c-5.681-0.127-11.361-0.232-17.043-0.336
	c-30.582-0.563-61.166-1.063-91.743-1.835c-12.267-0.31-24.54-0.598-36.796-1.216c-3.069-0.155-6.176-0.249-9.225-0.66
	c-0.236-0.032-0.607-0.091-0.963-0.181c-0.416,1.086-0.822,2.56-1.144,3.504c0.335,0.256,0.103,0.652-0.34,0.986
	C325.939,322.436,324.76,325.843,323.594,329.255z M304.513,303.837c0.191-2.375,0.385-4.813,0.477-7.44
	c-2.555,1.06-5.101,1.376-7.617,1.156c-1.058,2.794-1.276,5.77-1.594,8.721c2.578,1.737,5.364,3.234,8.278,4.539
	C304.156,308.361,304.333,306.067,304.513,303.837z M295.119,295.504c3.848,1.144,7.124,0.582,9.908-0.996
	c0.004-0.366,0.018-0.717,0.018-1.091h1.635c2.988-2.282,5.33-5.749,7.124-9.385c0.024-0.05,0.046-0.101,0.069-0.151
	c-0.62,0.348-1.678,0.679-2.084,0.558c-4.95-1.472-9.472-4.415-14.51-5.533c-6.001-1.332-15.809,0.458-16.144,8.177
	c-0.003,0.074-0.032,0.144-0.071,0.21C285.387,290.418,289.936,293.962,295.119,295.504z M104.158,384.37
	c4.779-6.062,9.447-12.21,14.122-18.352c3.706-4.87,7.348-9.813,11.257-14.523c0.446-0.538,0.991-1.292,1.618-1.96
	c-6.317-0.788-12.888-0.562-19.224-0.575c-0.426-0.001-0.937-0.181-0.896-0.681c0.395-4.875,0.847-9.747,1.366-14.609
	c0.371-3.464,0.592-7.141,1.127-10.717c-2.699,4.536-5.415,9.061-8.112,13.597c-4.659,7.836-10.313,15.817-13.894,24.28
	c1.216-0.134,2.484-0.061,3.635-0.008c4.498,0.207,8.987,0.709,13.494,0.687c0.304-0.001,1.083,0.199,0.896,0.681
	c-3.837,9.881-7.487,19.833-11.356,29.701C100.291,389.453,102.221,386.828,104.158,384.37z M121.416,431.052
	c4.006,0.452,8.272,1.463,12.329,2.878c0.054-0.716,0.124-1.433,0.195-2.149c0.176-1.769,0.402-3.54,0.673-5.311
	c1.834-12.019,5.656-24.039,9.07-35.4c4.87-16.203,9.568-33.353,18.893-47.654h-48.243c-0.114,1.278-0.229,2.557-0.335,3.836
	c6.604-0.005,13.388-0.155,19.922,0.785c0.115,0.006,0.232,0.019,0.35,0.045c0.029,0.004,0.059,0.007,0.088,0.011
	c-0.005,0.003-0.01,0.007-0.014,0.01c0.094,0.024,0.188,0.046,0.282,0.083c1.351,0.528-1.362,1.601-2.007,1.532
	c0.682,0.18,1.176,0.004,1.404-0.124c-0.105,0.09-0.268,0.245-0.498,0.501c-0.563,0.627-1.104,1.273-1.635,1.927
	c-1.527,1.882-3.018,3.793-4.497,5.712c-3.877,5.03-7.704,10.1-11.562,15.146c-3.658,4.786-7.261,10.134-11.227,15.058
	c0.098-0.012,0.188-0.017,0.261-0.007c4.747,0.651,34.884-0.59,30.715,9.18c-0.071,0.166-0.159,0.317-0.239,0.476
	C132.921,409.712,130.553,423.338,121.416,431.052z M139.671,445.299c0.554-0.156,1.025-0.323,1.438-0.496
	c2.927-1.229,2.476-2.853,0.771-4.34c-1.282-1.119-3.27-2.161-5.058-2.9c-0.122-0.05-0.249-0.101-0.372-0.151
	c-0.001,0.035-0.004,0.07-0.005,0.104c-0.031,1.101-2.951,1.646-2.914,0.305c0.015-0.513,0.047-1.028,0.072-1.542
	c-4.548-1.754-9.395-3.288-14.154-3.743c-2.234,1.523-4.816,2.739-7.836,3.551c-8.705,2.341-18.48,2.94-26.689-1.421
	c-1.152-0.612-2.241-1.289-3.273-2.023c-0.223,0.018-0.422,0.002-0.563-0.063c-4.417-2.028-11.197-0.669-15.746,0.181
	c-1.972,0.369-14.481,2.786-10.812,6.796c3.608,3.944,11.813,4.256,16.746,4.863c6.43,0.791,12.887,1.229,19.347,1.669
	c8.45,0.575,16.881,1.168,25.356,1.144c6.418-0.019,13.238,0.078,19.678-1.054c-0.916-0.479-1.818-0.984-2.693-1.549
	c-1.421-0.918,1.079-2.468,2.217-1.732C136.614,443.824,138.12,444.61,139.671,445.299z M238.379,421.714
	c5.294-0.013,10.765,0.16,15.247,2.552c1.504,0.803,2.906,1.875,4.168,3.138c2.882-1.146,6.1-1.736,8.922-0.696
	c2.04-1.747,4.604-2.55,7.249-1.538c0.08,0.031,0.16,0.047,0.24,0.081c0.045-0.054,0.094-0.104,0.14-0.157
	c1.267-1.452,3.005-2.431,4.788-2.333c0.935,0.051,1.881,0.393,2.777,1.127c0.186,0.152,0.354,0.326,0.529,0.49
	c1.798,1.688,3.098,4.016,4.058,6.437c0.3,0.755,0.571,1.518,0.812,2.272c0.055-0.035,0.105-0.069,0.174-0.107
	c0.617-0.341,1.572-0.736,2.569-0.98c1.995-0.488,4.162-0.358,4.161,2.105c-0.002,3.277-2.34,5.998-4.945,7.752
	c-0.047,0.031-0.092,0.068-0.139,0.099c0.007,0.615-0.034,1.215-0.133,1.787c0.24-0.061,0.453-0.09,0.592-0.069
	c0.143,0.022,0.287,0.037,0.43,0.058c5.936,0.885,11.886,1.388,17.844,1.651c0.381-5.873,0.897-11.646,2.338-17.266
	c0.493-1.924,1.092-3.831,1.834-5.716c-0.412-0.029-0.824-0.064-1.237-0.095c-5.372-0.399-10.739-0.902-16.099-1.579
	c-0.827-0.104-1.02-0.525-0.867-0.962c0.029-0.084,0.066-0.168,0.12-0.252c-0.24,0.05-0.479,0.075-0.695,0.077
	c-0.474,0.004-0.829-0.115-0.776-0.419c1.297-7.586,3.975-15.066,6.243-22.397c3.732-12.062,7.634-24.07,11.594-36.058
	c3.661-11.081,7.365-22.147,11.159-33.183c0.812-2.361,1.479-5.401,2.391-8.245c-5.866-1.345-12.034-2.958-17.887-5.189
	c0,0.108-0.005,0.209-0.005,0.318h-2c0-0.38,0.014-0.735,0.019-1.105c-2.009-0.828-3.961-1.745-5.848-2.748
	c-1.029-0.547-2.045-1.112-3.025-1.718c-0.088,0.064-0.185,0.123-0.289,0.175c-0.09,1.404-0.219,2.8-0.367,4.193
	c-2.467,23.292-12.639,45.058-19.827,67.175c0.831,1.913,1.722,3.801,2.703,5.648c0.489,0.92-2.332,1.842-2.898,0.776
	c-0.772-1.454-1.485-2.932-2.161-4.425c-0.586,0.006-1.032-0.193-0.881-0.666c0.082-0.256,0.167-0.512,0.25-0.769
	c-4.947-11.494-7.426-23.988-10.665-36.024c-3.94-14.643-8.559-29.788-8.451-45.087c-0.052,0.495-0.673,1.082-1.516,1.13
	c-10.782,0.615-21.847,1.516-32.48,3.967c-5.961,1.374-11.788,3.229-17.35,5.809c-0.286,0.133-0.563,0.278-0.848,0.415
	c-14.207,6.815-25.87,18.024-34.365,31.249v1.003h-0.636c-1.125,1.797-2.198,3.625-3.205,5.488
	c-7.845,14.507-12.482,31.058-17.008,46.882c-3.56,12.447-7.633,25.599-8.522,38.656c-0.013,0.182-0.03,0.364-0.042,0.546
	c0.354,0.144,0.691,0.303,1.04,0.453c0.697,0.297,1.388,0.598,2.057,0.917c0.761,0.361,1.509,0.731,2.223,1.118
	c0.02,0.01,0.041,0.02,0.061,0.03c3.597,1.953,6.939,5.388,1.804,7.853c-0.627,0.301-1.275,0.565-1.932,0.813
	c8.928,3.327,19.252,3.519,28.499,4.053c4.937,0.285,9.854,0.751,14.771,1.2c7.895,0.721,15.784,1.397,23.739,1.205
	c0.156-0.313,0.314-0.625,0.471-0.937c7.112-14.202,15.098-27.693,27.902-37.474c-23.834-1.61-47.521-4.879-71.363-6.409
	c-1.955-0.125,0.097-1.635,1.148-1.567c7.52,0.482,15.023,1.147,22.522,1.871c0.012-0.057,0.021-0.112,0.043-0.174
	c6.921-18.969,17.222-36.508,22.9-55.953c0.349-1.194,3.308-1.553,2.928-0.253c-5.732,19.627-16.089,37.333-23.074,56.478
	c-0.021,0.058-0.053,0.112-0.087,0.165c15.937,1.569,31.852,3.376,47.836,4.4c0.564,0.036,1.315,0.453,0.579,0.99
	c-2.896,2.115-5.524,4.432-7.97,6.89c-0.336,0.338-0.68,0.67-1.009,1.014C233.795,421.761,236.07,421.72,238.379,421.714z
	 M289.215,433.593c-0.37,0.204-1.129,0.288-1.672,0.227c0.152,0.514,0.293,1.021,0.423,1.515c0.33,1.258,0.776,2.935,1.009,4.656
	c0.293-0.304,0.565-0.63,0.816-0.969c0.71-0.958,1.234-2.043,1.433-3.188c0.114-0.655,0.221-1.69-0.266-2.258
	c-0.011-0.012-0.017-0.028-0.028-0.04C290.327,432.894,289.924,433.201,289.215,433.593z M281.482,437.931
	c-0.016,1.569-0.358,3.217-1.015,4.713c0.24,0.021,0.446,0.092,0.582,0.226c1.149,1.13,2.663,2.796,4.33,3.134
	c0.021,0.004,0.028,0.011,0.043,0.016c0.015-0.051,0.038-0.113,0.085-0.199c0.201-0.373,0.329-0.789,0.404-1.205
	c0.527-2.929-0.149-6.121-0.964-8.938c-0.903-3.126-2.101-6.443-4.15-9.019c-1.882-2.365-3.069-2.967-4.669-0.249
	C279.379,428.982,281.521,434.021,281.482,437.931z M272.984,443.911c0.452,1.694,1.349,3.091,2.986,1.408
	c2.008-2.063,2.959-5.198,2.514-8.04c-0.465-2.963-1.629-6.028-3.64-8.299c-0.84-0.948-1.798-1.952-3.016-2.403
	c-1.458-0.539-2.513,0.076-3.374,1.029c0.109,0.075,0.223,0.139,0.33,0.22c3.199,2.423,4.486,6.531,4.684,10.404
	C273.558,439.979,273.477,442.029,272.984,443.911z M264.204,441.994c0.01,0.716-0.039,1.422-0.138,2.107
	c0.57-0.125,1.177-0.038,1.492,0.397c1.241,1.715,2.734,3.526,3.898,0.985c0.2-0.437,0.361-0.895,0.506-1.36
	c-0.161-0.682-0.252-1.414-0.275-2.166c-0.012-0.405,0.365-0.737,0.851-0.954c0.093-1.265,0.044-2.54-0.133-3.745
	c-0.403-2.744-1.363-5.896-3.72-7.609c-0.986,0.436-2.731,0.438-2.143-0.455c0.104-0.159,0.217-0.312,0.328-0.465
	c-1.803-0.565-3.718-0.265-5.545,0.399C262.273,432.805,264.145,437.543,264.204,441.994z M363.855,446.335
	c-17.88-0.42-35.798,0.971-53.652,0.5c-0.736,0.477-2.042,0.564-2.342-0.069c-6.428-0.231-12.846-0.733-19.252-1.668
	c-0.205,0.495-0.474,0.952-0.836,1.343c-2.625,2.838-6.229,0.46-8.57-1.644c-0.947,1.225-2.184,2.195-3.717,2.695
	c-1.727,0.563-3.006,0.301-3.92-0.454c-0.245,0.329-0.516,0.637-0.821,0.915c-2.567,2.335-5.422,0.734-7.295-1.472
	c-0.379,0.96-0.906,1.824-1.6,2.534c33.674,3.378,67.587,1.365,101.374,2.551c-0.087-0.128-0.135-0.286-0.119-0.484
	C363.232,449.483,363.649,447.924,363.855,446.335z M366.465,444.153c0.049,0.047,0.099,0.093,0.147,0.14
	c11.501,1.081,23.052,0.946,34.597,1.068c0.104-0.141,0.238-0.272,0.395-0.387c2.642-6.73,3.411-13.786,2.792-20.782
	c-29.864-1.175-59.822,0.318-89.637-1.596c-2.565,6.559-3.351,13.424-3.842,20.389c-0.059,0.833-0.115,1.668-0.168,2.504
	c0.412,0.013,0.825,0.014,1.237,0.024c16.322,0.435,32.704-0.678,49.051-0.559c-0.025-0.362,1.801-1.043,2.296-0.986
	c0.456,0.053,0.913,0.086,1.37,0.135C365.353,443.874,366.12,443.818,366.465,444.153z M374.908,357.847
	c-0.69,1.75-1.14,3.718-1.712,5.392c-1.658,4.851-3.29,9.711-4.894,14.58c-2.779,8.438-6.313,17.125-7.895,25.897
	c0.025,0,0.055-0.002,0.076,0c0.555,0.064,1.109,0.106,1.664,0.164c1.577-8.387,4.717-16.688,7.271-24.795
	c1.504-4.774,3.022-9.543,4.585-14.298c0.61-1.859,1.027-4.157,2.008-5.869c0.221-0.387,1.022-0.63,1.726-0.712
	C376.693,358.169,375.701,358.065,374.908,357.847z M364.852,404.147c11.502,1.003,23.051,0.833,34.593,0.975
	c-1.424-3.341-3.091-6.57-4.94-9.639c-0.913,0.177-1.947-0.209-1.606-1.237c3.199-9.657,20.536-10.19,22.844,0.371
	c0.014,0.063,0.014,0.123,0.016,0.184c0.217,0.051,0.396,0.154,0.497,0.321c1.947,3.191,3.692,6.541,5.182,9.997
	c3.445,0.024,6.888,0.082,10.328,0.249c1.657-8.444,5.014-16.81,7.696-24.936c1.688-5.112,3.394-10.218,5.144-15.309
	c0.338-0.984,0.629-2.08,0.963-3.16c-2.806-0.332-7.863,0.02-10.932-0.015c-8.197-0.092-16.394-0.177-24.59-0.291
	c-7.852-0.108-15.705-0.211-23.555-0.449c-1.53-0.046-6.23,0.504-8.669-0.232c-0.44,1.366-0.774,2.805-1.185,4.062
	c-1.584,4.854-3.14,9.717-4.666,14.59c-2.505,7.992-5.611,16.164-7.084,24.432C364.881,404.089,364.865,404.118,364.852,404.147z
	 M378.881,358.448c-0.083,0.145-0.156,0.301-0.232,0.453c0.237,0.051,0.447,0.131,0.601,0.235c-0.136-0.164-0.112-0.213,0.984-0.136
	c0.844,0.059,1.688,0.106,2.533,0.143c2.815,0.124,5.632,0.204,8.448,0.271c7.931,0.189,15.863,0.302,23.796,0.403
	c7.63,0.097,15.261,0.175,22.891,0.264c2.626,0.031,5.608-0.276,8.346-0.03c0.107-0.257,0.222-0.507,0.343-0.75
	c-3.145-0.337-8.393-0.002-11.671-0.062c-8.583-0.156-17.167-0.307-25.751-0.484c-8.48-0.175-16.964-0.345-25.441-0.659
	c-0.933-0.035-2.983,0.135-5.03,0.128C378.859,358.268,378.942,358.341,378.881,358.448z M404.314,445.149
	c0.18,0.083,0.365,0.17,0.557,0.259c0.318,0.008,0.418,0.077,0.38,0.176c4.635,2.152,11.991,5.382,15.243,1.505
	c0.014-0.017,0.032-0.03,0.048-0.046c3.106-7.42,3.895-15.261,3.016-22.997c-0.17-0.238-0.197-0.54-0.101-0.832
	c-0.717-5.554-2.281-11.043-4.452-16.273c-0.161-0.109-0.216-0.265-0.187-0.443c-1.497-3.542-3.269-6.961-5.242-10.197
	c-0.049-0.081-0.076-0.16-0.092-0.238c-0.317-0.101-0.564-0.315-0.642-0.671c-1.678-7.682-13.388-8.432-16.719-1.826
	c0.366,0.005,0.685,0.11,0.835,0.357C406.271,409.193,411.078,428.045,404.314,445.149z M454.299,460.447
	c-23.295-0.857-46.619-1.107-69.852-3.118c-0.34,0.104-0.672,0.144-0.908,0.08c-0.246-0.067-0.488-0.144-0.733-0.216
	c-0.461-0.042-0.923-0.072-1.384-0.115c-0.511-0.048-0.5-0.216-0.252-0.411c-5.455-1.906-10.312-5.077-14.666-8.866
	c-0.149,0.785-0.29,1.57-0.39,2.361c5.354,5.19,11.546,9.656,18.821,11.636c0.279,0.076,0.433,0.181,0.503,0.299
	c22.806,1.92,45.702,1.361,68.56,2.093c0.071-1.148,0.143-2.296,0.214-3.445c0.007-0.101,0.05-0.193,0.114-0.28
	C454.316,460.458,454.308,460.452,454.299,460.447z M423.234,447.995c-0.089-0.005-0.162-0.019-0.236-0.031
	c-0.02,0.026-0.03,0.05-0.053,0.076c-4.979,5.936-14.326,1.823-20.314-0.869c-0.809,0.187-1.709,0.042-1.639-0.606
	c-10.942-0.145-21.892,0.008-32.801-0.795c4.953,4.496,10.599,8.265,17.115,10.039c0.276,0.075,0.429,0.178,0.5,0.295
	c22.084,1.937,44.25,2.271,66.396,3.024c-5.77-3.738-11.285-8.001-17.748-10.437C430.715,448.459,426.975,448.228,423.234,447.995z
	 M465.717,400.786c-0.124,0.401-0.252,0.801-0.375,1.203c-2.158,7.019-4.701,14.167-5.957,21.424
	c1.418,0.351,0.057,2.242-1.32,2.157c-10.498-0.65-20.994-1.241-31.514-1.113c0.34,3.64,0.31,7.299-0.147,10.932
	c0.227-0.023,0.427-0.009,0.573,0.06c12.131,5.682,24.408,12.833,37.862,14.711c0.142-2.717,0.254-5.436,0.335-8.154
	c-0.397,0.103-0.773,0.14-0.992,0.055c-7.86-3.066-15.436-6.827-23.459-9.469c-1.063-0.35,1.562-1.538,2.338-1.282
	c7.58,2.497,14.763,5.983,22.159,8.947C465.564,427.104,465.394,413.939,465.717,400.786z M467.277,387.205
	c0.848-2.647,1.701-5.294,2.56-7.938c-0.265-0.317-0.071-0.698,0.327-1.006c1.38-4.244,2.768-8.485,4.168-12.723
	c3.66-11.081,7.365-22.147,11.158-33.183c0.762-2.218,1.398-5.035,2.229-7.726c-3.697-0.905-10.821-0.163-14.907-0.253
	c-29.758-0.654-59.518-1.196-89.271-2.011c-12.724-0.348-25.455-0.675-38.166-1.343c-3.23-0.17-6.501-0.276-9.71-0.716
	c-0.063-0.009-0.141-0.02-0.223-0.033c-0.326,0.977-0.635,2.092-0.883,2.799c-1.209,3.466-2.392,6.941-3.565,10.419
	c-3.624,10.738-7.179,21.499-10.674,32.279c-3.688,11.373-7.339,22.76-10.796,34.206c-1.941,6.431-4.176,12.962-5.416,19.592
	c1.412,0.138,2.824,0.254,4.237,0.374c0.925,0.078,1.851,0.16,2.776,0.23c30.935,2.374,62.039,0.751,93.046,1.896
	c-0.688-5.363-2.168-10.666-4.221-15.734c-13.795-0.231-27.607,0.154-41.341-1.435c-0.336-0.039-0.441-0.128-0.41-0.239
	c-0.424-0.022-0.726-0.162-0.671-0.468c1.579-8.782,5.112-17.486,7.901-25.931c1.688-5.111,3.394-10.218,5.145-15.309
	c0.693-2.017,1.184-4.499,2.266-6.355c0.129-0.22,0.437-0.395,0.803-0.522c0.093-0.095,0.196-0.18,0.297-0.238
	c0.623-0.365,1.68-0.266,2.178,0.068c-0.166-0.172-0.18-0.221,0.927-0.134c0.978,0.077,1.956,0.136,2.935,0.184
	c3.075,0.152,6.153,0.257,9.231,0.35c8.314,0.25,16.631,0.428,24.947,0.591c8.259,0.163,16.519,0.306,24.777,0.459
	c3.346,0.062,7.241-0.408,10.536,0.309c1.009,0.219,0.637,0.884-0.07,1.351c-0.264,0.539-0.494,1.11-0.702,1.7
	c0.03,0.141-0.03,0.3-0.157,0.46c-0.476,1.433-0.852,2.931-1.303,4.249c-1.658,4.851-3.29,9.711-4.895,14.58
	c-2.755,8.365-6.246,16.975-7.847,25.669c0.71,0.523-0.62,1.857-1.729,1.788c-3.496-0.219-6.996-0.299-10.496-0.336
	c1.937,4.887,3.34,9.965,4.031,15.103c10.129-0.146,20.236,0.372,30.346,0.988c1.342-7.32,3.902-14.54,6.093-21.62
	c1.099-3.551,2.216-7.096,3.341-10.639c0.047-0.943,0.076-1.886,0.132-2.829C466.234,387.716,466.715,387.381,467.277,387.205z
	 M548.785,300.886c-0.213-0.04-0.464-0.083-0.711-0.083c-1.036-0.005-2.072,0.006-3.109,0.028c-3.157,0.064-6.314,0.172-9.471,0.292
	c-8.749,0.332-17.495,0.735-26.241,1.143c-8.596,0.4-17.191,0.821-25.789,1.183c-2.423,0.102-6.66,1.03-9.537,0.547
	c-0.053,0.447-0.105,0.893-0.14,1.342c-0.108,1.445-0.178,2.893-0.239,4.34c0.192,0.009,0.373,0.047,0.525,0.127
	c-0.899-0.473,1.379-0.202,2.015-0.229c1.877-0.083,3.753-0.185,5.629-0.293c4.723-0.271,9.443-0.566,14.166-0.833
	c4.432-0.251,8.871-0.539,13.311-0.609c1.232-0.02,3.807-0.465,4.762,0.613c0.97,1.097-1.782,2.261-2.654,1.275
	c0.608,0.687-1.29,0.205-2.366,0.229c-1.683,0.037-3.366,0.1-5.048,0.177c-4.723,0.218-9.443,0.496-14.163,0.777
	c-4.233,0.252-8.467,0.527-12.704,0.727c-0.975,0.046-2.297,0.271-3.487,0.218c0.057,1.67,0.144,3.739-0.561,4.875
	c-0.119,0.192-0.313,0.348-0.546,0.468c1.4,0.026,2.801,0.05,4.201,0.077c4.119,0.08,8.239,0.156,12.358,0.263
	c1.423,0.037,3.328-0.234,4.71,0.223c0.539,0.178-0.029,0.604-0.764,0.906c-0.538,1.086-1.092,3.226-1.494,4.365
	c-1.297,3.674-2.566,7.359-3.828,11.046c-3.756,10.984-7.445,21.991-11.075,33.018c-1.147,3.485-2.288,6.971-3.425,10.459
	c0.479,0.018,1.008,0.056,1.268,0.044c1.877-0.083,3.753-0.185,5.628-0.293c4.723-0.271,9.443-0.566,14.166-0.833
	c4.432-0.251,8.872-0.539,13.311-0.609c1.232-0.02,3.808-0.466,4.761,0.613c0.97,1.097-1.781,2.261-2.652,1.275
	c0.606,0.687-1.29,0.205-2.366,0.229c-1.684,0.037-3.366,0.1-5.049,0.177c-4.723,0.218-9.442,0.496-14.162,0.777
	c-4.233,0.252-8.468,0.527-12.704,0.727c-0.832,0.039-1.916,0.208-2.955,0.225c-1.129,3.479-2.249,6.961-3.357,10.447
	c-0.426,8.436-0.539,16.878-0.588,25.321c0.401-0.09,0.804-0.087,1.104,0.07c-0.9-0.473,1.38-0.202,2.016-0.23
	c1.876-0.083,3.752-0.185,5.628-0.292c4.723-0.271,9.443-0.566,14.166-0.833c4.432-0.25,8.872-0.538,13.311-0.609
	c1.232-0.02,3.808-0.466,4.761,0.613c0.97,1.097-1.781,2.261-2.652,1.275c0.606,0.687-1.29,0.205-2.366,0.229
	c-1.684,0.037-3.366,0.099-5.049,0.177c-4.723,0.218-9.442,0.496-14.162,0.777c-4.234,0.252-8.468,0.527-12.704,0.727
	c-1.138,0.053-2.744,0.354-4.063,0.168c-0.057,10.909-0.09,21.818-0.681,32.715c0.92-0.016,1.84-0.039,2.76-0.067
	c3.072-0.094,6.145-0.211,9.216-0.332c9.019-0.354,18.037-0.741,27.056-1.104c8.503-0.342,17.007-0.697,25.514-0.914
	c1.236-0.031,4.356-0.53,6.946-0.484c0.476-5.319,0.884-10.647,1.259-15.978c-0.247-0.051-0.467-0.157-0.625-0.335
	c0.606,0.687-1.29,0.204-2.366,0.228c-1.684,0.037-3.366,0.1-5.049,0.177c-4.723,0.218-9.442,0.496-14.162,0.777
	c-4.234,0.252-8.468,0.527-12.704,0.727c-1.488,0.07-3.785,0.571-5.182-0.163c-1.423-0.748,1.121-2.255,2.234-1.67
	c-0.9-0.473,1.38-0.202,2.016-0.23c1.876-0.083,3.752-0.185,5.628-0.292c4.723-0.272,9.443-0.566,14.166-0.833
	c4.432-0.251,8.872-0.539,13.311-0.609c0.71-0.011,1.865-0.157,2.901-0.077c0.901-13.192,1.572-26.41,2.276-39.616
	c-0.385-0.003-0.741-0.111-0.97-0.369c0.606,0.687-1.29,0.205-2.366,0.229c-1.684,0.037-3.366,0.099-5.049,0.177
	c-4.723,0.218-9.442,0.496-14.162,0.777c-4.234,0.252-8.468,0.527-12.704,0.727c-1.488,0.07-3.785,0.571-5.182-0.163
	c-1.423-0.748,1.121-2.255,2.234-1.67c-0.9-0.473,1.38-0.202,2.016-0.23c1.876-0.083,3.752-0.185,5.628-0.292
	c4.723-0.272,9.443-0.566,14.166-0.833c4.432-0.25,8.872-0.538,13.311-0.609c0.78-0.013,2.099-0.194,3.204-0.052
	c0.288-5.373,0.583-10.744,0.907-16.109c0.233-3.862,0.471-7.724,0.705-11.585c-0.521,0.083-1.05,0.003-1.353-0.338
	c0.607,0.687-1.289,0.205-2.365,0.229c-1.684,0.037-3.366,0.1-5.049,0.177c-4.723,0.218-9.443,0.496-14.162,0.777
	c-4.234,0.252-8.468,0.527-12.705,0.727c-1.486,0.07-3.784,0.572-5.181-0.163c-1.423-0.748,1.121-2.255,2.234-1.67
	c-0.899-0.473,1.38-0.202,2.015-0.229c1.877-0.083,3.753-0.185,5.629-0.293c4.723-0.271,9.443-0.566,14.166-0.833
	c4.432-0.251,8.871-0.539,13.311-0.609c0.877-0.014,2.426-0.234,3.594,0.022c0.676-11.105,1.36-22.21,2.1-33.312
	c0.152-2.276,0.223-4.639,0.297-7.026c-0.631,0.206-1.371,0.186-1.752-0.245c0.608,0.687-1.291,0.205-2.366,0.229
	c-1.684,0.037-3.366,0.099-5.048,0.177c-4.724,0.218-9.443,0.496-14.163,0.777c-4.233,0.252-8.468,0.527-12.704,0.727
	c-1.487,0.07-3.785,0.572-5.181-0.163c-1.423-0.748,1.121-2.256,2.234-1.67c-0.899-0.473,1.379-0.202,2.015-0.23
	c1.877-0.083,3.753-0.185,5.628-0.292c4.723-0.272,9.443-0.566,14.166-0.833c4.433-0.25,8.872-0.538,13.312-0.609
	c0.964-0.016,2.738-0.281,3.927,0.115c0.166-4.783,0.438-9.616,1.493-14.068C548.748,300.967,548.77,300.927,548.785,300.886z
	 M489.639,398.083c-0.637,0.028-2.914-0.244-2.015,0.229c-1.113-0.586-3.657,0.921-2.234,1.67c1.396,0.735,3.694,0.233,5.181,0.163
	c4.236-0.199,8.471-0.474,12.704-0.727c4.72-0.281,9.439-0.559,14.163-0.777c1.682-0.078,3.364-0.14,5.048-0.177
	c1.075-0.024,2.975,0.458,2.366-0.229c0.872,0.985,3.624-0.179,2.654-1.275c-0.955-1.078-3.529-0.632-4.762-0.613
	c-4.439,0.071-8.879,0.358-13.312,0.609c-4.723,0.267-9.443,0.562-14.166,0.833C493.392,397.897,491.516,398,489.639,398.083z
	 M134.023,349.596C134.204,349.495,134.219,349.429,134.023,349.596L134.023,349.596z M303.974,213.417h2
	c0-12.829,0.272-24.088,0.535-34.976c0.264-10.899,0.536-22.17,0.536-35.024h-0.132v-1H123.035v1h-0.133v183h0.133v2h49.938v-2
	h-48.071v-182h180.141c-0.015,12.411-0.277,23.375-0.533,33.976C304.246,189.292,303.974,200.563,303.974,213.417z M213.606,179.902
	c0.777,0.33,2.979-0.866,2.734-0.97c-31.389-13.314-62.978,26.042-50.815,55.394c12.385,29.891,50.422,22.02,70.813,5.735
	c0.008,0,0.017,0,0.024,0c0.85-0.004,3.157-1.297,1.223-1.287c-17.063,0.086-41.437,2.965-47.53-17.933
	c-4.181-14.337,4.337-38.464,21.308-39.78c0.825-0.064,3.145-1.437,1.223-1.287c-18.082,1.402-27.817,21.29-26.204,37.746
	c2.359,24.053,29.303,22.794,47.609,22.564c-19.514,15.787-52.109,21.124-65.027-5.336
	C156.15,208.503,183.495,167.13,213.606,179.902z" fill="#0984E3"></path>
</svg>