<?xml version="1.0" encoding="utf-8"?>
<svg id="master-artboard" viewBox="0 0 1400 980" version="1.1" xmlns="http://www.w3.org/2000/svg" x="0px" y="0px" style="enable-background:new 0 0 1400 980;" width="1400px" height="980px">


<g transform="matrix(1, 0, 0, 1, 2.842170943040401e-14, 7.105427357601002e-15)">
		<g>
			<path d="M 435 710.200012 L 429 710.200012" class="st2" style="fill: none; stroke: rgb(0, 0, 0); stroke-width: 4; stroke-linecap: round; stroke-linejoin: round;"/>
			<path d="M 419.399994 710.200012 L 385.899994 710.200012" class="st3" style="fill: none; stroke: rgb(0, 0, 0); stroke-width: 4; stroke-linecap: round; stroke-linejoin: round; stroke-dasharray: 9.5844, 9.5844;"/>
			<path d="M 381.100006 710.200012 L 375.100006 710.200012 L 375.100006 716.200012" class="st2" style="fill: none; stroke: rgb(0, 0, 0); stroke-width: 4; stroke-linecap: round; stroke-linejoin: round;"/>
			<path d="M 375.100006 728.900024 L 375.100006 849.799988" class="st4" style="fill: none; stroke: rgb(0, 0, 0); stroke-width: 4; stroke-linecap: round; stroke-linejoin: round; stroke-dasharray: 12.7253, 12.7253;"/>
			<path d="M 375.100006 856.200012 L 375.100006 862.200012 L 369.100006 862.200012" class="st2" style="fill: none; stroke: rgb(0, 0, 0); stroke-width: 4; stroke-linecap: round; stroke-linejoin: round;"/>
			<path d="M 357.600006 862.200012 L 225.800003 862.200012" class="st5" style="fill: none; stroke: rgb(0, 0, 0); stroke-width: 4; stroke-linecap: round; stroke-linejoin: round; stroke-dasharray: 11.4647, 11.4647;"/>
			<path d="M 220 862.200012 L 214 862.200012 L 214 856.200012" class="st2" style="fill: none; stroke: rgb(0, 0, 0); stroke-width: 4; stroke-linecap: round; stroke-linejoin: round;"/>
			<path d="M 214 844.200012 L 214 85.099998" class="st6" style="fill: none; stroke: rgb(0, 0, 0); stroke-width: 4; stroke-linecap: round; stroke-linejoin: round; stroke-dasharray: 11.9545, 11.9545;"/>
			<path d="M 214 79.099998 L 214 73.099998 L 220 73.099998" class="st2" style="fill: none; stroke: rgb(0, 0, 0); stroke-width: 4; stroke-linecap: round; stroke-linejoin: round;"/>
			<path d="M 232 73.099998 L 345.600006 73.099998" class="st7" style="fill: none; stroke: rgb(0, 0, 0); stroke-width: 4; stroke-linecap: round; stroke-linejoin: round; stroke-dasharray: 11.9594, 11.9594;"/>
			<path d="M 351.600006 73.099998 L 357.600006 73.099998 L 357.600006 79.099998" class="st2" style="fill: none; stroke: rgb(0, 0, 0); stroke-width: 4; stroke-linecap: round; stroke-linejoin: round;"/>
			<path d="M 357.600006 90.900002 L 357.600006 225.899994" class="st8" style="fill: none; stroke: rgb(0, 0, 0); stroke-width: 4; stroke-linecap: round; stroke-linejoin: round; stroke-dasharray: 11.7424, 11.7424;"/>
			<path d="M 357.600006 231.800003 L 357.600006 237.800003 L 363.600006 237.899994" class="st2" style="fill: none; stroke: rgb(0, 0, 0); stroke-width: 4; stroke-linecap: round; stroke-linejoin: round;"/>
			<path d="M 377.399994 238.199997 L 383.399994 238.300003" class="st2" style="fill: none; stroke: rgb(0, 0, 0); stroke-width: 4; stroke-linecap: round; stroke-linejoin: round;"/>
		</g>
	</g><path d="M 1071.699951 843.700012 L 1024.900024 843.700012 L 1024.900024 749.700012 L 1003.900024 749.700012" class="st9" style="fill: none; stroke: rgb(0, 0, 0); stroke-width: 4; stroke-linecap: round; stroke-linejoin: round; stroke-miterlimit: 10; stroke-dasharray: 12;" transform="matrix(1, 0, 0, 1, 2.842170943040401e-14, 7.105427357601002e-15)"/><path d="M 1057.199951 104.099998 L 1119.5 104.099998 L 1119.5 45.700001 L 1220.699951 44.799999 L 1220.699951 638.599976" class="st9" style="fill: none; stroke: rgb(0, 0, 0); stroke-width: 4; stroke-linecap: round; stroke-linejoin: round; stroke-miterlimit: 10; stroke-dasharray: 12;" transform="matrix(1, 0, 0, 1, 2.842170943040401e-14, 7.105427357601002e-15)"/>
<g transform="matrix(1, 0, 0, 1, 2.842170943040401e-14, 7.105427357601002e-15)">
		<path d="M 321.29998779296875 122.9000015258789 L 116 122.9000015258789 L 115.30000305175781 323.6000061035156 L 272.70001220703125 323.29998779296875 L 321.29998779296875 277.3999938964844 Z" class="st10" style="fill: rgb(243, 114, 69); stroke: rgb(0, 0, 0); stroke-width: 3; stroke-miterlimit: 10;"/>
		<path d="M 272.70001220703125 323.29998779296875 L 321.29998779296875 277.3999938964844 L 272.70001220703125 276.29998779296875 Z" class="st11" style="fill: rgb(142, 216, 248); stroke: rgb(0, 0, 0); stroke-width: 3; stroke-linecap: round; stroke-linejoin: round; stroke-miterlimit: 10;"/>
		<path d="M 116 122.900002 H 321.300003 V 150.500002 H 116 V 122.900002 Z" class="st12" style="fill: rgb(255, 255, 255); stroke: rgb(0, 0, 0); stroke-width: 3; stroke-miterlimit: 10;"/>
	</g><path class="st12" d="M240.6,225.9c-11.5-14.4-27.9-23.4-46.1-25.5c-18.3-2.1-36.3,3.1-50.6,14.6c-24.5,19.6-32.7,53.2-20,81.8&#10;&#9;&#9;&#9;l0.9,2l-56.8,42.4l18.7,24l57.1-42.7l1.8,1.3c9.8,7.3,21.4,11.9,33.6,13.3c18.3,2.1,36.2-3.1,50.6-14.6&#10;&#9;&#9;&#9;C259.4,299,264.2,255.6,240.6,225.9 M180.9,320.7c-28.6-3.2-49.3-29.1-46-57.7c3.2-28.6,29.1-49.3,57.7-46.1&#10;&#9;&#9;&#9;c28.6,3.2,49.3,29.1,46,57.7C235.4,303.3,209.5,323.9,180.9,320.7" style="fill: rgb(255, 255, 255); stroke: rgb(0, 0, 0); stroke-width: 3; stroke-miterlimit: 10;" transform="matrix(1, 0, 0, 1, 5.684341886080802e-14, 1.4210854715202004e-14)"/><path class="st13" d="M27,367c-0.1,0.1-5.2,4-6,10.4c-0.6,4.8,1.3,10,5.6,15.5c4.6,5.7,9.7,9,15.2,9.6c6.6,0.7,11.7-2.6,11.8-2.6&#10;&#9;&#9;&#9;l69.7-54.5l-26-33.5L27,367z" style="fill: rgb(142, 216, 248); stroke: rgb(0, 0, 0); stroke-width: 3; stroke-miterlimit: 10;" transform="matrix(1, 0, 0, 1, 5.684341886080802e-14, 1.4210854715202004e-14)"/><path d="M 239.399998 268.899994 A 52.200001 52.200001 0 0 1 187.199997 321.099995 A 52.200001 52.200001 0 0 1 134.999996 268.899994 A 52.200001 52.200001 0 0 1 187.199997 216.699993 A 52.200001 52.200001 0 0 1 239.399998 268.899994 Z" transform="matrix(0.11150000244379044, -0.9938000440597534, 0.9938000440597534, 0.11150000244379044, -100.88839721679683, 424.8622131347657)" class="st10" style="fill: rgb(243, 114, 69); stroke: rgb(0, 0, 0); stroke-width: 3; stroke-miterlimit: 10;"/>
<g transform="matrix(1, 0, 0, 1, 2.842170943040401e-14, 7.105427357601002e-15)">
		<path class="st10" d="M1016.5,462H423.8c-12.8,0-23.1-10.4-23.1-23.1V68.8c0-12.8,10.4-23.1,23.1-23.1h592.7&#10;&#9;&#9;&#9;c12.8,0,23.1,10.4,23.1,23.1v370.1C1039.6,451.7,1029.3,462,1016.5,462" style="fill: rgb(243, 114, 69); stroke: rgb(0, 0, 0); stroke-width: 3; stroke-miterlimit: 10;"/>
		<path d="M 400.700012 73.099998 H 1039.700012 V 411.399986 H 400.700012 V 73.099998 Z" class="st13" style="fill: rgb(142, 216, 248); stroke: rgb(0, 0, 0); stroke-width: 3; stroke-miterlimit: 10;"/>
		<path d="M 588.400024 462 H 851.600037 V 538.599998 H 588.400024 V 462 Z" class="st12" style="fill: rgb(255, 255, 255); stroke: rgb(0, 0, 0); stroke-width: 3; stroke-miterlimit: 10;"/>
		<path class="st13" d="M889.3,548.7H550.5c-7,0-12.7-5.6-12.7-12.6c0-7,5.7-12.6,12.7-12.6h338.8c7,0,12.7,5.6,12.7,12.6&#10;&#9;&#9;&#9;C902,543.1,896.3,548.7,889.3,548.7" style="fill: rgb(142, 216, 248); stroke: rgb(0, 0, 0); stroke-width: 3; stroke-miterlimit: 10;"/>
		<path d="M 971.5 122.69999694824219 L 467.70001220703125 122.9000015258789 L 468.79998779296875 364 L 972.5999755859375 363.79998779296875 Z" class="st12" style="fill: rgb(255, 255, 255); stroke: rgb(0, 0, 0); stroke-width: 3; stroke-miterlimit: 10;"/>
		<path d="M 796.600014 226 A 84.400002 84.400002 0 0 1 712.200012 310.400002 A 84.400002 84.400002 0 0 1 627.800011 226 A 84.400002 84.400002 0 0 1 712.200012 141.599998 A 84.400002 84.400002 0 0 1 796.600014 226 Z" class="st12" style="fill: rgb(255, 255, 255); stroke: rgb(0, 0, 0); stroke-width: 3; stroke-miterlimit: 10;"/>
		<path d="M 947.7999877929688 321.29998779296875 L 491.70001220703125 319.6000061035156 L 491.79998779296875 335.3999938964844 L 947.9000244140625 337.1000061035156 Z" class="st10" style="fill: rgb(243, 114, 69); stroke: rgb(0, 0, 0); stroke-width: 3; stroke-miterlimit: 10;"/>
		<path class="st10" d="M768,230.5l-79.7,44.4c-3.7,2-8.1-0.6-8.1-4.8l-0.4-88c0-4.2,4.4-6.9,8-4.9l80.2,43.6&#10;&#9;&#9;&#9;C771.8,222.9,771.8,228.4,768,230.5" style="fill: rgb(243, 114, 69); stroke: rgb(0, 0, 0); stroke-width: 3; stroke-miterlimit: 10;"/>
	</g>
<g transform="matrix(1, 0, 0, 1, 2.842170943040401e-14, 7.105427357601002e-15)">
		<g id="post_it_2_">
			<path d="M 1090.800049 154.399994 H 1263.500046 V 327.099991 H 1090.800049 V 154.399994 Z" class="st12" style="fill: rgb(255, 255, 255); stroke: rgb(0, 0, 0); stroke-width: 3; stroke-miterlimit: 10;"/>
			<path d="M 1155.099976 141.100006 H 1327.799973 V 313.800003 H 1155.099976 V 141.100006 Z" class="st12" style="fill: rgb(255, 255, 255); stroke: rgb(0, 0, 0); stroke-width: 3; stroke-miterlimit: 10;"/>
		</g>
		
			<path d="M 1239.199951 138.800003 H 1247.199951 V 263.900002 H 1239.199951 V 138.800003 Z" transform="matrix(1.373048e-02 -0.9999 0.9999 1.373048e-02 1024.7599 1441.6222)" class="st10" style="fill: rgb(243, 114, 69); stroke: rgb(0, 0, 0); stroke-width: 3; stroke-miterlimit: 10;"/>
		
			<path d="M 1238.800049 165.600006 H 1246.800049 V 290.700005 H 1238.800049 V 165.600006 Z" transform="matrix(1.373172e-02 -0.9999 0.9999 1.373172e-02 997.625 1467.6605)" class="st10" style="fill: rgb(243, 114, 69); stroke: rgb(0, 0, 0); stroke-width: 3; stroke-miterlimit: 10;"/>
		
			<path d="M 1238.400024 192.399994 H 1246.400024 V 317.499992 H 1238.400024 V 192.399994 Z" transform="matrix(1.372862e-02 -0.9999 0.9999 1.372862e-02 970.4949 1493.7002)" class="st10" style="fill: rgb(243, 114, 69); stroke: rgb(0, 0, 0); stroke-width: 3; stroke-miterlimit: 10;"/>
	</g>
<g id="pendrive_2_" transform="matrix(1, 0, 0, 1, 2.842170943040401e-14, 7.105427357601002e-15)">
		<path class="st12" d="M1295.3,495.6h19.1h0.8h18.2V466h-18.2h-0.8h-19.1V495.6z M1327.4,483.8h-8.6l0-5.9l8.6,0V483.8z&#10;&#9;&#9;&#9; M1301.6,483.8l0-5.9l9,0l0,5.9H1301.6z" style="fill: rgb(255, 255, 255); stroke: rgb(0, 0, 0); stroke-width: 3; stroke-miterlimit: 10;"/>
		<path class="st13" d="M1284.8,495.6v82.8c0,4.5,1.7,9.1,5.2,12.6c3.5,3.5,8,5.2,12.6,5.2l23.7,0c4.5,0,9.1-1.7,12.6-5.2&#10;&#9;&#9;&#9;c3.5-3.5,5.2-8,5.2-12.6v-82.8H1284.8z" style="fill: rgb(142, 216, 248); stroke: rgb(0, 0, 0); stroke-width: 3; stroke-miterlimit: 10;"/>
		<g>
			<path class="st13" d="M1324.7,451.8L1324.7,451.8H1304l0,0h-19.2v-29.6c0-4.5,1.7-9.1,5.2-12.5c3.5-3.5,8-5.2,12.6-5.2h11.8h11.8&#10;&#9;&#9;&#9;&#9;c4.6,0,9.1,1.7,12.6,5.2c3.5,3.5,5.2,8,5.2,12.5v29.6H1324.7z" style="fill: rgb(142, 216, 248); stroke: rgb(0, 0, 0); stroke-width: 3; stroke-miterlimit: 10;"/>
		</g>
	</g>
<g transform="matrix(1, 0, 0, 1, 2.842170943040401e-14, 7.105427357601002e-15)">
		<path class="st12" d="M319.7,548.7c0,61-49.5,110.5-110.5,110.5c-61,0-110.5-49.5-110.5-110.5c0-61,49.5-110.5,110.5-110.5&#10;&#9;&#9;&#9;C270.2,438.3,319.7,487.7,319.7,548.7" style="fill: rgb(255, 255, 255); stroke: rgb(0, 0, 0); stroke-width: 3; stroke-miterlimit: 10;"/>
		<path class="st10" d="M319.7,587.8L289.8,575c3.3-9.3,5.2-19.3,5.2-29.7c0-48.3-39.2-87.5-87.5-87.5s-87.5,39.2-87.5,87.5&#10;&#9;&#9;&#9;c0,48.3,39.2,87.5,87.5,87.5c31.7,0,59.5-16.9,74.9-42.2l30.4,13c4.4,1.9,9.5-0.1,11.4-4.5C326.1,594.8,324.1,589.7,319.7,587.8z" style="fill: rgb(243, 114, 69); stroke: rgb(0, 0, 0); stroke-width: 3; stroke-miterlimit: 10;"/>
		<path class="st13" d="M280.2,545.4c0,40.2-32.6,72.7-72.7,72.7s-72.7-32.6-72.7-72.7c0-40.2,32.6-72.7,72.7-72.7&#10;&#9;&#9;&#9;S280.2,505.2,280.2,545.4" style="fill: rgb(142, 216, 248); stroke: rgb(0, 0, 0); stroke-width: 3; stroke-miterlimit: 10;"/>
		<path class="st12" d="M184.4,533c0,8.7-7,15.7-15.7,15.7c-8.7,0-15.7-7-15.7-15.7c0-8.7,7-15.7,15.7-15.7&#10;&#9;&#9;&#9;C177.3,517.3,184.4,524.3,184.4,533" style="fill: rgb(255, 255, 255); stroke: rgb(0, 0, 0); stroke-width: 3; stroke-miterlimit: 10;"/>
		<path class="st12" d="M203.2,495.2c0,5.2-4.2,9.4-9.4,9.4c-5.2,0-9.4-4.2-9.4-9.4c0-5.2,4.2-9.4,9.4-9.4&#10;&#9;&#9;&#9;C199,485.8,203.2,490,203.2,495.2" style="fill: rgb(255, 255, 255); stroke: rgb(0, 0, 0); stroke-width: 3; stroke-miterlimit: 10;"/>
	</g>
<g transform="matrix(1, 0, 0, 1, 2.842170943040401e-14, 7.105427357601002e-15)">
		<g>
			<g>
				<path class="st12" d="M118.2,694.8l-68.4,92c-3.5,4.7-2.5,11.4,2.2,14.9l183.7,136.7c4.7,3.5,11.4,2.5,14.9-2.2l68.4-92&#10;&#9;&#9;&#9;&#9;&#9;c3.5-4.7,2.5-11.4-2.2-14.9L133.1,692.6C128.4,689.1,121.7,690,118.2,694.8z" style="fill: rgb(255, 255, 255); stroke: rgb(0, 0, 0); stroke-width: 3; stroke-miterlimit: 10;"/>
			</g>
		</g>
		<g>
			<g>
				<path class="st11" d="M270,870.5l-8.3,11.2c-1.4,1.8-1.3,4.2,0.1,5.3l5.3,4c1.4,1.1,3.7,0.4,5.1-1.4l8.3-11.2&#10;&#9;&#9;&#9;&#9;&#9;c1.4-1.8,1.3-4.2-0.1-5.3l-5.3-4C273.6,868,271.3,868.6,270,870.5z" style="fill: rgb(142, 216, 248); stroke: rgb(0, 0, 0); stroke-width: 3; stroke-linecap: round; stroke-linejoin: round; stroke-miterlimit: 10;"/>
			</g>
		</g>
		<g>
			<g>
				<path class="st11" d="M102.1,734.4l-19,25.5c-0.7,0.9-0.2,2.5,1.1,3.4l2.1,1.6c1.3,1,2.9,1,3.6,0.1l19-25.5&#10;&#9;&#9;&#9;&#9;&#9;c0.7-0.9,0.2-2.5-1.1-3.4l-2.1-1.6C104.4,733.5,102.8,733.4,102.1,734.4z" style="fill: rgb(142, 216, 248); stroke: rgb(0, 0, 0); stroke-width: 3; stroke-linecap: round; stroke-linejoin: round; stroke-miterlimit: 10;"/>
			</g>
		</g>
		<g>
			
				<path d="M 122.900002 720.099976 H 241.900002 V 907.799973 H 122.900002 V 720.099976 Z" transform="matrix(0.597 -0.8022 0.8022 0.597 -579.5072 474.3775)" class="st12" style="fill: rgb(255, 255, 255); stroke: rgb(0, 0, 0); stroke-width: 3; stroke-miterlimit: 10;"/>
		</g>
		<g>
			
				<path d="M 94.400002 774.400024 H 213.400002 V 813.100025 H 94.400002 V 774.400024 Z" transform="matrix(0.597 -0.8022 0.8022 0.597 -574.7557 443.4142)" class="st11" style="fill: rgb(142, 216, 248); stroke: rgb(0, 0, 0); stroke-width: 3; stroke-linecap: round; stroke-linejoin: round; stroke-miterlimit: 10;"/>
		</g>
		<g>
			
				<path d="M 126.400002 808.200012 H 245.400002 V 824.700012 H 126.400002 V 808.200012 Z" transform="matrix(0.597 -0.8022 0.8022 0.597 -580.0221 478.1925)" class="st11" style="fill: rgb(142, 216, 248); stroke: rgb(0, 0, 0); stroke-width: 3; stroke-linecap: round; stroke-linejoin: round; stroke-miterlimit: 10;"/>
		</g>
		<path d="M 241.299994 843.299988 A 18.9 18.9 0 0 1 222.399994 862.199987 A 18.9 18.9 0 0 1 203.499994 843.299988 A 18.9 18.9 0 0 1 222.399994 824.399988 A 18.9 18.9 0 0 1 241.299994 843.299988 Z" class="st10" style="fill: rgb(243, 114, 69); stroke: rgb(0, 0, 0); stroke-width: 3; stroke-miterlimit: 10;"/>
	</g>
<g transform="matrix(1, 0, 0, 1, 2.842170943040401e-14, 7.105427357601002e-15)">
		<path class="st13" d="M974.2,607.7H466.1c-8.9,0-16.1,7.3-16.1,16.1v186c0,8.9,7.3,16.1,16.1,16.1h508.2c8.9,0,16.1-7.3,16.1-16.1&#10;&#9;&#9;&#9;v-186C990.4,615,983.1,607.7,974.2,607.7z" style="fill: rgb(142, 216, 248); stroke: rgb(0, 0, 0); stroke-width: 3; stroke-miterlimit: 10;"/>
		<g>
			<g>
				<g>
					<path class="st14" d="M990.4,706h55.7c13.4,0,24.2-10.8,24.2-24.2V573c0-13.4-10.8-24.2-24.2-24.2H935.3&#10;&#9;&#9;&#9;&#9;&#9;&#9;c-13.4,0-24.2-10.8-24.2-24.2v0c0-13.4,10.8-24.2,24.2-24.2h181.9c13.4,0,24.2,10.8,24.2,24.2v75c0,13.4,10.8,24.2,24.2,24.2&#10;&#9;&#9;&#9;&#9;&#9;&#9;h13.4c13.4,0,24.2-10.8,24.2-24.2V455.5c0-13.4-10.8-24.2-24.2-24.2h-139.4" style="fill: none; stroke: rgb(0, 0, 0); stroke-width: 3; stroke-miterlimit: 10;"/>
				</g>
			</g>
		</g>
		<g>
			<g>
				<path class="st12" d="M496.2,634.4h-20c-1.6,0-2.9,1.4-2.9,3.1v21.2c0,1.7,1.3,3.1,2.9,3.1h20c1.6,0,2.9-1.4,2.9-3.1v-21.2&#10;&#9;&#9;&#9;&#9;&#9;C499.1,635.8,497.8,634.4,496.2,634.4z" style="fill: rgb(255, 255, 255); stroke: rgb(0, 0, 0); stroke-width: 3; stroke-miterlimit: 10;"/>
			</g>
			<g>
				<path class="st12" d="M530.4,634.4h-20c-1.6,0-2.9,1.4-2.9,3.1v21.2c0,1.7,1.3,3.1,2.9,3.1h20c1.6,0,2.9-1.4,2.9-3.1v-21.2&#10;&#9;&#9;&#9;&#9;&#9;C533.4,635.8,532,634.4,530.4,634.4z" style="fill: rgb(255, 255, 255); stroke: rgb(0, 0, 0); stroke-width: 3; stroke-miterlimit: 10;"/>
			</g>
			<g>
				<path class="st12" d="M564.7,634.4h-20c-1.6,0-2.9,1.4-2.9,3.1v21.2c0,1.7,1.3,3.1,2.9,3.1h20c1.6,0,2.9-1.4,2.9-3.1v-21.2&#10;&#9;&#9;&#9;&#9;&#9;C567.6,635.8,566.3,634.4,564.7,634.4z" style="fill: rgb(255, 255, 255); stroke: rgb(0, 0, 0); stroke-width: 3; stroke-miterlimit: 10;"/>
			</g>
			<g>
				<path class="st12" d="M599,634.4h-20c-1.6,0-2.9,1.4-2.9,3.1v21.2c0,1.7,1.3,3.1,2.9,3.1h20c1.6,0,2.9-1.4,2.9-3.1v-21.2&#10;&#9;&#9;&#9;&#9;&#9;C601.9,635.8,600.6,634.4,599,634.4z" style="fill: rgb(255, 255, 255); stroke: rgb(0, 0, 0); stroke-width: 3; stroke-miterlimit: 10;"/>
			</g>
			<g>
				<path class="st12" d="M633.2,634.4h-20c-1.6,0-2.9,1.4-2.9,3.1v21.2c0,1.7,1.3,3.1,2.9,3.1h20c1.6,0,2.9-1.4,2.9-3.1v-21.2&#10;&#9;&#9;&#9;&#9;&#9;C636.2,635.8,634.8,634.4,633.2,634.4z" style="fill: rgb(255, 255, 255); stroke: rgb(0, 0, 0); stroke-width: 3; stroke-miterlimit: 10;"/>
			</g>
			<g>
				<path class="st12" d="M667.5,634.4h-20c-1.6,0-2.9,1.4-2.9,3.1v21.2c0,1.7,1.3,3.1,2.9,3.1h20c1.6,0,2.9-1.4,2.9-3.1v-21.2&#10;&#9;&#9;&#9;&#9;&#9;C670.4,635.8,669.1,634.4,667.5,634.4z" style="fill: rgb(255, 255, 255); stroke: rgb(0, 0, 0); stroke-width: 3; stroke-miterlimit: 10;"/>
			</g>
			<g>
				<path class="st12" d="M701.8,634.4h-20c-1.6,0-2.9,1.4-2.9,3.1v21.2c0,1.7,1.3,3.1,2.9,3.1h20c1.6,0,2.9-1.4,2.9-3.1v-21.2&#10;&#9;&#9;&#9;&#9;&#9;C704.7,635.8,703.4,634.4,701.8,634.4z" style="fill: rgb(255, 255, 255); stroke: rgb(0, 0, 0); stroke-width: 3; stroke-miterlimit: 10;"/>
			</g>
			<g>
				<path class="st12" d="M736.1,634.4h-20c-1.6,0-2.9,1.4-2.9,3.1v21.2c0,1.7,1.3,3.1,2.9,3.1h20c1.6,0,2.9-1.4,2.9-3.1v-21.2&#10;&#9;&#9;&#9;&#9;&#9;C739,635.8,737.7,634.4,736.1,634.4z" style="fill: rgb(255, 255, 255); stroke: rgb(0, 0, 0); stroke-width: 3; stroke-miterlimit: 10;"/>
			</g>
			<g>
				<path class="st12" d="M770.3,634.4h-20c-1.6,0-2.9,1.4-2.9,3.1v21.2c0,1.7,1.3,3.1,2.9,3.1h20c1.6,0,2.9-1.4,2.9-3.1v-21.2&#10;&#9;&#9;&#9;&#9;&#9;C773.2,635.8,771.9,634.4,770.3,634.4z" style="fill: rgb(255, 255, 255); stroke: rgb(0, 0, 0); stroke-width: 3; stroke-miterlimit: 10;"/>
			</g>
			<g>
				<path class="st12" d="M804.6,634.4h-20c-1.6,0-2.9,1.4-2.9,3.1v21.2c0,1.7,1.3,3.1,2.9,3.1h20c1.6,0,2.9-1.4,2.9-3.1v-21.2&#10;&#9;&#9;&#9;&#9;&#9;C807.5,635.8,806.2,634.4,804.6,634.4z" style="fill: rgb(255, 255, 255); stroke: rgb(0, 0, 0); stroke-width: 3; stroke-miterlimit: 10;"/>
			</g>
			<g>
				<path class="st12" d="M838.8,634.4h-20c-1.6,0-2.9,1.4-2.9,3.1v21.2c0,1.7,1.3,3.1,2.9,3.1h20c1.6,0,2.9-1.4,2.9-3.1v-21.2&#10;&#9;&#9;&#9;&#9;&#9;C841.8,635.8,840.5,634.4,838.8,634.4z" style="fill: rgb(255, 255, 255); stroke: rgb(0, 0, 0); stroke-width: 3; stroke-miterlimit: 10;"/>
			</g>
			<g>
				<path class="st12" d="M873.1,634.4h-20c-1.6,0-2.9,1.4-2.9,3.1v21.2c0,1.7,1.3,3.1,2.9,3.1h20c1.6,0,2.9-1.4,2.9-3.1v-21.2&#10;&#9;&#9;&#9;&#9;&#9;C876,635.8,874.7,634.4,873.1,634.4z" style="fill: rgb(255, 255, 255); stroke: rgb(0, 0, 0); stroke-width: 3; stroke-miterlimit: 10;"/>
			</g>
			<g>
				<path class="st12" d="M907.4,634.4h-20c-1.6,0-2.9,1.4-2.9,3.1v21.2c0,1.7,1.3,3.1,2.9,3.1h20c1.6,0,2.9-1.4,2.9-3.1v-21.2&#10;&#9;&#9;&#9;&#9;&#9;C910.3,635.8,909,634.4,907.4,634.4z" style="fill: rgb(255, 255, 255); stroke: rgb(0, 0, 0); stroke-width: 3; stroke-miterlimit: 10;"/>
			</g>
			<g>
				<path class="st12" d="M964.1,634.4h-42.4c-1.6,0-2.9,1.4-2.9,3.1v21.2c0,1.7,1.3,3.1,2.9,3.1h42.4c1.6,0,2.9-1.4,2.9-3.1v-21.2&#10;&#9;&#9;&#9;&#9;&#9;C967,635.8,965.7,634.4,964.1,634.4z" style="fill: rgb(255, 255, 255); stroke: rgb(0, 0, 0); stroke-width: 3; stroke-miterlimit: 10;"/>
			</g>
			<g>
				<path class="st12" d="M518.6,777.5h-42.4c-1.6,0-2.9,1.4-2.9,3.1v21.2c0,1.7,1.3,3.1,2.9,3.1h42.4c1.6,0,2.9-1.4,2.9-3.1v-21.2&#10;&#9;&#9;&#9;&#9;&#9;C521.5,778.9,520.2,777.5,518.6,777.5z" style="fill: rgb(255, 255, 255); stroke: rgb(0, 0, 0); stroke-width: 3; stroke-miterlimit: 10;"/>
			</g>
			<g>
				<path class="st12" d="M610.2,777.5h-44.7c-1.6,0-2.9,1.4-2.9,3.1v21.2c0,1.7,1.3,3.1,2.9,3.1h44.7c1.6,0,2.9-1.4,2.9-3.1v-21.2&#10;&#9;&#9;&#9;&#9;&#9;C613.1,778.9,611.8,777.5,610.2,777.5z" style="fill: rgb(255, 255, 255); stroke: rgb(0, 0, 0); stroke-width: 3; stroke-miterlimit: 10;"/>
			</g>
			<g>
				<path class="st12" d="M552,777.5h-20c-1.6,0-2.9,1.4-2.9,3.1v21.2c0,1.7,1.3,3.1,2.9,3.1h20c1.6,0,2.9-1.4,2.9-3.1v-21.2&#10;&#9;&#9;&#9;&#9;&#9;C555,778.9,553.7,777.5,552,777.5z" style="fill: rgb(255, 255, 255); stroke: rgb(0, 0, 0); stroke-width: 3; stroke-miterlimit: 10;"/>
			</g>
			<g>
				<path class="st12" d="M874.8,777.5h-44.7c-1.6,0-2.9,1.4-2.9,3.1v21.2c0,1.7,1.3,3.1,2.9,3.1h44.7c1.6,0,2.9-1.4,2.9-3.1v-21.2&#10;&#9;&#9;&#9;&#9;&#9;C877.7,778.9,876.4,777.5,874.8,777.5z" style="fill: rgb(255, 255, 255); stroke: rgb(0, 0, 0); stroke-width: 3; stroke-miterlimit: 10;"/>
			</g>
			<g>
				<path class="st12" d="M964.1,777.5h-42.4c-1.6,0-2.9,1.4-2.9,3.1v21.2c0,1.7,1.3,3.1,2.9,3.1h42.4c1.6,0,2.9-1.4,2.9-3.1v-21.2&#10;&#9;&#9;&#9;&#9;&#9;C967,778.9,965.7,777.5,964.1,777.5z" style="fill: rgb(255, 255, 255); stroke: rgb(0, 0, 0); stroke-width: 3; stroke-miterlimit: 10;"/>
			</g>
			<g>
				<path class="st12" d="M908.2,777.5h-20c-1.6,0-2.9,1.4-2.9,3.1v21.2c0,1.7,1.3,3.1,2.9,3.1h20c1.6,0,2.9-1.4,2.9-3.1v-21.2&#10;&#9;&#9;&#9;&#9;&#9;C911.1,778.9,909.8,777.5,908.2,777.5z" style="fill: rgb(255, 255, 255); stroke: rgb(0, 0, 0); stroke-width: 3; stroke-miterlimit: 10;"/>
			</g>
			<g>
				<path class="st12" d="M817.4,777.5H622.9c-0.7,0-1.3,0.6-1.3,1.4v24.6c0,0.8,0.6,1.4,1.3,1.4h194.5c0.7,0,1.3-0.6,1.3-1.4v-24.6&#10;&#9;&#9;&#9;&#9;&#9;C818.7,778.1,818.1,777.5,817.4,777.5z" style="fill: rgb(255, 255, 255); stroke: rgb(0, 0, 0); stroke-width: 3; stroke-miterlimit: 10;"/>
			</g>
			<g>
				<path class="st12" d="M964.1,670.2h-20c-1.6,0-2.9,1.4-2.9,3.1v21.2c0,1.7,1.3,3.1,2.9,3.1h20c1.6,0,2.9-1.4,2.9-3.1v-21.2&#10;&#9;&#9;&#9;&#9;&#9;C967,671.6,965.7,670.2,964.1,670.2z" style="fill: rgb(255, 255, 255); stroke: rgb(0, 0, 0); stroke-width: 3; stroke-miterlimit: 10;"/>
			</g>
			<g>
				<path class="st12" d="M929.8,670.2h-20c-1.6,0-2.9,1.4-2.9,3.1v21.2c0,1.7,1.3,3.1,2.9,3.1h20c1.6,0,2.9-1.4,2.9-3.1v-21.2&#10;&#9;&#9;&#9;&#9;&#9;C932.7,671.6,931.4,670.2,929.8,670.2z" style="fill: rgb(255, 255, 255); stroke: rgb(0, 0, 0); stroke-width: 3; stroke-miterlimit: 10;"/>
			</g>
			<g>
				<path class="st12" d="M895.5,670.2h-20c-1.6,0-2.9,1.4-2.9,3.1v21.2c0,1.7,1.3,3.1,2.9,3.1h20c1.6,0,2.9-1.4,2.9-3.1v-21.2&#10;&#9;&#9;&#9;&#9;&#9;C898.5,671.6,897.2,670.2,895.5,670.2z" style="fill: rgb(255, 255, 255); stroke: rgb(0, 0, 0); stroke-width: 3; stroke-miterlimit: 10;"/>
			</g>
			<g>
				<path class="st12" d="M861.3,670.2h-20c-1.6,0-2.9,1.4-2.9,3.1v21.2c0,1.7,1.3,3.1,2.9,3.1h20c1.6,0,2.9-1.4,2.9-3.1v-21.2&#10;&#9;&#9;&#9;&#9;&#9;C864.2,671.6,862.9,670.2,861.3,670.2z" style="fill: rgb(255, 255, 255); stroke: rgb(0, 0, 0); stroke-width: 3; stroke-miterlimit: 10;"/>
			</g>
			<g>
				<path class="st12" d="M827,670.2h-20c-1.6,0-2.9,1.4-2.9,3.1v21.2c0,1.7,1.3,3.1,2.9,3.1h20c1.6,0,2.9-1.4,2.9-3.1v-21.2&#10;&#9;&#9;&#9;&#9;&#9;C829.9,671.6,828.6,670.2,827,670.2z" style="fill: rgb(255, 255, 255); stroke: rgb(0, 0, 0); stroke-width: 3; stroke-miterlimit: 10;"/>
			</g>
			<g>
				<path class="st12" d="M792.7,670.2h-20c-1.6,0-2.9,1.4-2.9,3.1v21.2c0,1.7,1.3,3.1,2.9,3.1h20c1.6,0,2.9-1.4,2.9-3.1v-21.2&#10;&#9;&#9;&#9;&#9;&#9;C795.7,671.6,794.4,670.2,792.7,670.2z" style="fill: rgb(255, 255, 255); stroke: rgb(0, 0, 0); stroke-width: 3; stroke-miterlimit: 10;"/>
			</g>
			<g>
				<path class="st12" d="M758.5,670.2h-20c-1.6,0-2.9,1.4-2.9,3.1v21.2c0,1.7,1.3,3.1,2.9,3.1h20c1.6,0,2.9-1.4,2.9-3.1v-21.2&#10;&#9;&#9;&#9;&#9;&#9;C761.4,671.6,760.1,670.2,758.5,670.2z" style="fill: rgb(255, 255, 255); stroke: rgb(0, 0, 0); stroke-width: 3; stroke-miterlimit: 10;"/>
			</g>
			<g>
				<path class="st12" d="M724.2,670.2h-20c-1.6,0-2.9,1.4-2.9,3.1v21.2c0,1.7,1.3,3.1,2.9,3.1h20c1.6,0,2.9-1.4,2.9-3.1v-21.2&#10;&#9;&#9;&#9;&#9;&#9;C727.1,671.6,725.8,670.2,724.2,670.2z" style="fill: rgb(255, 255, 255); stroke: rgb(0, 0, 0); stroke-width: 3; stroke-miterlimit: 10;"/>
			</g>
			<g>
				<path class="st12" d="M689.9,670.2h-20c-1.6,0-2.9,1.4-2.9,3.1v21.2c0,1.7,1.3,3.1,2.9,3.1h20c1.6,0,2.9-1.4,2.9-3.1v-21.2&#10;&#9;&#9;&#9;&#9;&#9;C692.8,671.6,691.5,670.2,689.9,670.2z" style="fill: rgb(255, 255, 255); stroke: rgb(0, 0, 0); stroke-width: 3; stroke-miterlimit: 10;"/>
			</g>
			<g>
				<path class="st12" d="M655.7,670.2h-20c-1.6,0-2.9,1.4-2.9,3.1v21.2c0,1.7,1.3,3.1,2.9,3.1h20c1.6,0,2.9-1.4,2.9-3.1v-21.2&#10;&#9;&#9;&#9;&#9;&#9;C658.6,671.6,657.3,670.2,655.7,670.2z" style="fill: rgb(255, 255, 255); stroke: rgb(0, 0, 0); stroke-width: 3; stroke-miterlimit: 10;"/>
			</g>
			<g>
				<path class="st12" d="M621.4,670.2h-20c-1.6,0-2.9,1.4-2.9,3.1v21.2c0,1.7,1.3,3.1,2.9,3.1h20c1.6,0,2.9-1.4,2.9-3.1v-21.2&#10;&#9;&#9;&#9;&#9;&#9;C624.3,671.6,623,670.2,621.4,670.2z" style="fill: rgb(255, 255, 255); stroke: rgb(0, 0, 0); stroke-width: 3; stroke-miterlimit: 10;"/>
			</g>
			<g>
				<path class="st12" d="M587.1,670.2h-20c-1.6,0-2.9,1.4-2.9,3.1v21.2c0,1.7,1.3,3.1,2.9,3.1h20c1.6,0,2.9-1.4,2.9-3.1v-21.2&#10;&#9;&#9;&#9;&#9;&#9;C590,671.6,588.7,670.2,587.1,670.2z" style="fill: rgb(255, 255, 255); stroke: rgb(0, 0, 0); stroke-width: 3; stroke-miterlimit: 10;"/>
			</g>
			<g>
				<path class="st12" d="M552.9,670.2h-20c-1.6,0-2.9,1.4-2.9,3.1v21.2c0,1.7,1.3,3.1,2.9,3.1h20c1.6,0,2.9-1.4,2.9-3.1v-21.2&#10;&#9;&#9;&#9;&#9;&#9;C555.8,671.6,554.5,670.2,552.9,670.2z" style="fill: rgb(255, 255, 255); stroke: rgb(0, 0, 0); stroke-width: 3; stroke-miterlimit: 10;"/>
			</g>
			<g>
				<path class="st12" d="M518.6,670.2h-42.4c-1.6,0-2.9,1.4-2.9,3.1v21.2c0,1.7,1.3,3.1,2.9,3.1h42.4c1.6,0,2.9-1.4,2.9-3.1v-21.2&#10;&#9;&#9;&#9;&#9;&#9;C521.5,671.6,520.2,670.2,518.6,670.2z" style="fill: rgb(255, 255, 255); stroke: rgb(0, 0, 0); stroke-width: 3; stroke-miterlimit: 10;"/>
			</g>
			<g>
				<path class="st12" d="M902.3,706h-20c-1.6,0-2.9,1.4-2.9,3.1v21.2c0,1.7,1.3,3.1,2.9,3.1h20c1.6,0,2.9-1.4,2.9-3.1v-21.2&#10;&#9;&#9;&#9;&#9;&#9;C905.2,707.3,903.9,706,902.3,706z" style="fill: rgb(255, 255, 255); stroke: rgb(0, 0, 0); stroke-width: 3; stroke-miterlimit: 10;"/>
			</g>
			<g>
				<path class="st12" d="M868,706h-20c-1.6,0-2.9,1.4-2.9,3.1v21.2c0,1.7,1.3,3.1,2.9,3.1h20c1.6,0,2.9-1.4,2.9-3.1v-21.2&#10;&#9;&#9;&#9;&#9;&#9;C870.9,707.3,869.6,706,868,706z" style="fill: rgb(255, 255, 255); stroke: rgb(0, 0, 0); stroke-width: 3; stroke-miterlimit: 10;"/>
			</g>
			<g>
				<path class="st12" d="M833.7,706h-20c-1.6,0-2.9,1.4-2.9,3.1v21.2c0,1.7,1.3,3.1,2.9,3.1h20c1.6,0,2.9-1.4,2.9-3.1v-21.2&#10;&#9;&#9;&#9;&#9;&#9;C836.7,707.3,835.3,706,833.7,706z" style="fill: rgb(255, 255, 255); stroke: rgb(0, 0, 0); stroke-width: 3; stroke-miterlimit: 10;"/>
			</g>
			<g>
				<path class="st12" d="M799.5,706h-20c-1.6,0-2.9,1.4-2.9,3.1v21.2c0,1.7,1.3,3.1,2.9,3.1h20c1.6,0,2.9-1.4,2.9-3.1v-21.2&#10;&#9;&#9;&#9;&#9;&#9;C802.4,707.3,801.1,706,799.5,706z" style="fill: rgb(255, 255, 255); stroke: rgb(0, 0, 0); stroke-width: 3; stroke-miterlimit: 10;"/>
			</g>
			<g>
				<path class="st12" d="M765.2,706h-20c-1.6,0-2.9,1.4-2.9,3.1v21.2c0,1.7,1.3,3.1,2.9,3.1h20c1.6,0,2.9-1.4,2.9-3.1v-21.2&#10;&#9;&#9;&#9;&#9;&#9;C768.1,707.3,766.8,706,765.2,706z" style="fill: rgb(255, 255, 255); stroke: rgb(0, 0, 0); stroke-width: 3; stroke-miterlimit: 10;"/>
			</g>
			<g>
				<path class="st12" d="M730.9,706h-20c-1.6,0-2.9,1.4-2.9,3.1v21.2c0,1.7,1.3,3.1,2.9,3.1h20c1.6,0,2.9-1.4,2.9-3.1v-21.2&#10;&#9;&#9;&#9;&#9;&#9;C733.9,707.3,732.6,706,730.9,706z" style="fill: rgb(255, 255, 255); stroke: rgb(0, 0, 0); stroke-width: 3; stroke-miterlimit: 10;"/>
			</g>
			<g>
				<path class="st12" d="M696.7,706h-20c-1.6,0-2.9,1.4-2.9,3.1v21.2c0,1.7,1.3,3.1,2.9,3.1h20c1.6,0,2.9-1.4,2.9-3.1v-21.2&#10;&#9;&#9;&#9;&#9;&#9;C699.6,707.3,698.3,706,696.7,706z" style="fill: rgb(255, 255, 255); stroke: rgb(0, 0, 0); stroke-width: 3; stroke-miterlimit: 10;"/>
			</g>
			<g>
				<path class="st12" d="M662.4,706h-20c-1.6,0-2.9,1.4-2.9,3.1v21.2c0,1.7,1.3,3.1,2.9,3.1h20c1.6,0,2.9-1.4,2.9-3.1v-21.2&#10;&#9;&#9;&#9;&#9;&#9;C665.3,707.3,664,706,662.4,706z" style="fill: rgb(255, 255, 255); stroke: rgb(0, 0, 0); stroke-width: 3; stroke-miterlimit: 10;"/>
			</g>
			<g>
				<path class="st12" d="M628.1,706h-20c-1.6,0-2.9,1.4-2.9,3.1v21.2c0,1.7,1.3,3.1,2.9,3.1h20c1.6,0,2.9-1.4,2.9-3.1v-21.2&#10;&#9;&#9;&#9;&#9;&#9;C631,707.3,629.7,706,628.1,706z" style="fill: rgb(255, 255, 255); stroke: rgb(0, 0, 0); stroke-width: 3; stroke-miterlimit: 10;"/>
			</g>
			<g>
				<path class="st12" d="M593.9,706h-20c-1.6,0-2.9,1.4-2.9,3.1v21.2c0,1.7,1.3,3.1,2.9,3.1h20c1.6,0,2.9-1.4,2.9-3.1v-21.2&#10;&#9;&#9;&#9;&#9;&#9;C596.8,707.3,595.5,706,593.9,706z" style="fill: rgb(255, 255, 255); stroke: rgb(0, 0, 0); stroke-width: 3; stroke-miterlimit: 10;"/>
			</g>
			<g>
				<path class="st12" d="M559.6,706h-20c-1.6,0-2.9,1.4-2.9,3.1v21.2c0,1.7,1.3,3.1,2.9,3.1h20c1.6,0,2.9-1.4,2.9-3.1v-21.2&#10;&#9;&#9;&#9;&#9;&#9;C562.5,707.3,561.2,706,559.6,706z" style="fill: rgb(255, 255, 255); stroke: rgb(0, 0, 0); stroke-width: 3; stroke-miterlimit: 10;"/>
			</g>
			<g>
				<path class="st12" d="M525.3,706h-49.1c-1.6,0-2.9,1.4-2.9,3.1v21.2c0,1.7,1.3,3.1,2.9,3.1h49.1c1.6,0,2.9-1.4,2.9-3.1v-21.2&#10;&#9;&#9;&#9;&#9;&#9;C528.2,707.3,526.9,706,525.3,706z" style="fill: rgb(255, 255, 255); stroke: rgb(0, 0, 0); stroke-width: 3; stroke-miterlimit: 10;"/>
			</g>
			<g>
				<path class="st12" d="M964.1,706h-46.9c-1.6,0-2.9,1.4-2.9,3.1v21.2c0,1.7,1.3,3.1,2.9,3.1h46.9c1.6,0,2.9-1.4,2.9-3.1v-21.2&#10;&#9;&#9;&#9;&#9;&#9;C967,707.3,965.7,706,964.1,706z" style="fill: rgb(255, 255, 255); stroke: rgb(0, 0, 0); stroke-width: 3; stroke-miterlimit: 10;"/>
			</g>
			<g>
				<path class="st12" d="M884.3,741.7h-20c-1.6,0-2.9,1.4-2.9,3.1V766c0,1.7,1.3,3.1,2.9,3.1h20c1.6,0,2.9-1.4,2.9-3.1v-21.2&#10;&#9;&#9;&#9;&#9;&#9;C887.2,743.1,885.9,741.7,884.3,741.7z" style="fill: rgb(255, 255, 255); stroke: rgb(0, 0, 0); stroke-width: 3; stroke-miterlimit: 10;"/>
			</g>
			<g>
				<path class="st12" d="M850.1,741.7h-20c-1.6,0-2.9,1.4-2.9,3.1V766c0,1.7,1.3,3.1,2.9,3.1h20c1.6,0,2.9-1.4,2.9-3.1v-21.2&#10;&#9;&#9;&#9;&#9;&#9;C853,743.1,851.7,741.7,850.1,741.7z" style="fill: rgb(255, 255, 255); stroke: rgb(0, 0, 0); stroke-width: 3; stroke-miterlimit: 10;"/>
			</g>
			<g>
				<path class="st12" d="M815.8,741.7h-20c-1.6,0-2.9,1.4-2.9,3.1V766c0,1.7,1.3,3.1,2.9,3.1h20c1.6,0,2.9-1.4,2.9-3.1v-21.2&#10;&#9;&#9;&#9;&#9;&#9;C818.7,743.1,817.4,741.7,815.8,741.7z" style="fill: rgb(255, 255, 255); stroke: rgb(0, 0, 0); stroke-width: 3; stroke-miterlimit: 10;"/>
			</g>
			<g>
				<path class="st12" d="M781.5,741.7h-20c-1.6,0-2.9,1.4-2.9,3.1V766c0,1.7,1.3,3.1,2.9,3.1h20c1.6,0,2.9-1.4,2.9-3.1v-21.2&#10;&#9;&#9;&#9;&#9;&#9;C784.4,743.1,783.1,741.7,781.5,741.7z" style="fill: rgb(255, 255, 255); stroke: rgb(0, 0, 0); stroke-width: 3; stroke-miterlimit: 10;"/>
			</g>
			<g>
				<path class="st12" d="M747.3,741.7h-20c-1.6,0-2.9,1.4-2.9,3.1V766c0,1.7,1.3,3.1,2.9,3.1h20c1.6,0,2.9-1.4,2.9-3.1v-21.2&#10;&#9;&#9;&#9;&#9;&#9;C750.2,743.1,748.9,741.7,747.3,741.7z" style="fill: rgb(255, 255, 255); stroke: rgb(0, 0, 0); stroke-width: 3; stroke-miterlimit: 10;"/>
			</g>
			<g>
				<path class="st12" d="M713,741.7h-20c-1.6,0-2.9,1.4-2.9,3.1V766c0,1.7,1.3,3.1,2.9,3.1h20c1.6,0,2.9-1.4,2.9-3.1v-21.2&#10;&#9;&#9;&#9;&#9;&#9;C715.9,743.1,714.6,741.7,713,741.7z" style="fill: rgb(255, 255, 255); stroke: rgb(0, 0, 0); stroke-width: 3; stroke-miterlimit: 10;"/>
			</g>
			<g>
				<path class="st12" d="M678.7,741.7h-20c-1.6,0-2.9,1.4-2.9,3.1V766c0,1.7,1.3,3.1,2.9,3.1h20c1.6,0,2.9-1.4,2.9-3.1v-21.2&#10;&#9;&#9;&#9;&#9;&#9;C681.6,743.1,680.3,741.7,678.7,741.7z" style="fill: rgb(255, 255, 255); stroke: rgb(0, 0, 0); stroke-width: 3; stroke-miterlimit: 10;"/>
			</g>
			<g>
				<path class="st12" d="M644.5,741.7h-20c-1.6,0-2.9,1.4-2.9,3.1V766c0,1.7,1.3,3.1,2.9,3.1h20c1.6,0,2.9-1.4,2.9-3.1v-21.2&#10;&#9;&#9;&#9;&#9;&#9;C647.4,743.1,646.1,741.7,644.5,741.7z" style="fill: rgb(255, 255, 255); stroke: rgb(0, 0, 0); stroke-width: 3; stroke-miterlimit: 10;"/>
			</g>
			<g>
				<path class="st12" d="M610.2,741.7h-20c-1.6,0-2.9,1.4-2.9,3.1V766c0,1.7,1.3,3.1,2.9,3.1h20c1.6,0,2.9-1.4,2.9-3.1v-21.2&#10;&#9;&#9;&#9;&#9;&#9;C613.1,743.1,611.8,741.7,610.2,741.7z" style="fill: rgb(255, 255, 255); stroke: rgb(0, 0, 0); stroke-width: 3; stroke-miterlimit: 10;"/>
			</g>
			<g>
				<path class="st12" d="M575.9,741.7h-20c-1.6,0-2.9,1.4-2.9,3.1V766c0,1.7,1.3,3.1,2.9,3.1h20c1.6,0,2.9-1.4,2.9-3.1v-21.2&#10;&#9;&#9;&#9;&#9;&#9;C578.8,743.1,577.5,741.7,575.9,741.7z" style="fill: rgb(255, 255, 255); stroke: rgb(0, 0, 0); stroke-width: 3; stroke-miterlimit: 10;"/>
			</g>
			<g>
				<path class="st12" d="M541,741.7h-64.8c-1.6,0-2.9,1.4-2.9,3.1V766c0,1.7,1.3,3.1,2.9,3.1H541c1.6,0,2.9-1.4,2.9-3.1v-21.2&#10;&#9;&#9;&#9;&#9;&#9;C543.9,743.1,542.6,741.7,541,741.7z" style="fill: rgb(255, 255, 255); stroke: rgb(0, 0, 0); stroke-width: 3; stroke-miterlimit: 10;"/>
			</g>
			<g>
				<path class="st12" d="M964.1,741.7h-64.8c-1.6,0-2.9,1.4-2.9,3.1V766c0,1.7,1.3,3.1,2.9,3.1h64.8c1.6,0,2.9-1.4,2.9-3.1v-21.2&#10;&#9;&#9;&#9;&#9;&#9;C967,743.1,965.7,741.7,964.1,741.7z" style="fill: rgb(255, 255, 255); stroke: rgb(0, 0, 0); stroke-width: 3; stroke-miterlimit: 10;"/>
			</g>
		</g>
	</g>
<g transform="matrix(1, 0, 0, 1, 2.842170943040401e-14, 7.105427357601002e-15)">
		<g>
			<path class="st15" d="M905.7,712.1l-9.8,51.2c-0.6-0.8-1.6-1.6-2.5-2.3l6.5-68.7c1.5-15.9-20.6-16-22-2.6l-6.6,63.4&#10;&#9;&#9;&#9;&#9;c-0.6-0.1-2-0.2-2.5-0.2l1.3-73.1c0.3-14.7-21.9-15-22.2-0.4l-1.4,78.3c-1,0.5-2,1.1-2.9,1.7l-6.2-75.5&#10;&#9;&#9;&#9;&#9;c-1.2-14.4-23.3-13.1-22.1,1.9l7.1,85.8c0.1,7.5,0.1,16.6,0.2,27.3L802.1,768c-9.2-13.7-23.3-8.2-27.6-1.5l41.8,75.2&#10;&#9;&#9;&#9;&#9;c2.2,3.9,6,7.1,10.7,9.6l0.1,69.7l63.1-0.1l-0.2-72.4c14.3-10.7,22.5-30.6,22.8-60l14.5-72.4&#10;&#9;&#9;&#9;&#9;C930.6,700.7,908.7,696.5,905.7,712.1z" style="fill-rule: evenodd; clip-rule: evenodd; fill: rgb(255, 255, 255); stroke: rgb(0, 0, 0); stroke-width: 3; stroke-miterlimit: 10;"/>
			<path d="M 819.9000244140625 881.7999877929688 L 820 947.7000122070312 L 897.4000244140625 947.2999877929688 L 897.4000244140625 881.4000244140625 Z" class="st16" style="fill-rule: evenodd; clip-rule: evenodd; fill: rgb(243, 114, 69); stroke: rgb(0, 0, 0); stroke-width: 3; stroke-miterlimit: 10;"/>
			<path d="M 905.2000122070312 928.7999877929688 L 812.2999877929688 928.9000244140625 L 812.9000244140625 978.0999755859375 L 861 978.7999877929688 L 861 978 L 905.7999877929688 978 Z" class="st17" style="fill-rule: evenodd; clip-rule: evenodd; fill: rgb(142, 216, 248); stroke: rgb(0, 0, 0); stroke-width: 3; stroke-miterlimit: 10;"/>
		</g>
		<g>
			<path class="st15" d="M642.9,771.2l-20.6,30.9c0.1-10.7,0.1-19.8,0.2-27.3l7.1-85.8c1.2-15-20.9-16.3-22.1-1.9l-6.2,75.5&#10;&#9;&#9;&#9;&#9;c-1-0.6-1.9-1.2-2.9-1.7l-1.4-78.3c-0.3-14.6-22.4-14.3-22.2,0.4l1.3,73.1c-0.5,0-1.8,0-2.5,0.2l-6.6-63.4&#10;&#9;&#9;&#9;&#9;c-1.4-13.3-23.5-13.2-22,2.6l6.5,68.7c-0.9,0.7-1.9,1.5-2.5,2.3l-9.8-51.2c-3-15.7-24.9-11.4-21.8,4l14.5,72.4&#10;&#9;&#9;&#9;&#9;c0.3,29.3,8.5,49.2,22.8,60l-0.2,72.4l63.1,0.1l0.1-69.7c4.7-2.5,8.5-5.7,10.7-9.6l41.8-75.2C666.2,763,652,757.5,642.9,771.2z" style="fill-rule: evenodd; clip-rule: evenodd; fill: rgb(255, 255, 255); stroke: rgb(0, 0, 0); stroke-width: 3; stroke-miterlimit: 10;"/>
			<path d="M 625 885 L 625 950.9000244140625 L 547.5 950.5 L 547.5999755859375 884.7000122070312 Z" class="st16" style="fill-rule: evenodd; clip-rule: evenodd; fill: rgb(243, 114, 69); stroke: rgb(0, 0, 0); stroke-width: 3; stroke-miterlimit: 10;"/>
			<path d="M 539.7000122070312 932 L 632.7000122070312 932.0999755859375 L 632.0999755859375 981.2999877929688 L 583.9000244140625 982 L 583.9000244140625 981.2999877929688 L 539.0999755859375 981.2000122070312 Z" class="st17" style="fill-rule: evenodd; clip-rule: evenodd; fill: rgb(142, 216, 248); stroke: rgb(0, 0, 0); stroke-width: 3; stroke-miterlimit: 10;"/>
		</g>
	</g>
<g transform="matrix(1, 0, 0, 1, 2.842170943040401e-14, 7.105427357601002e-15)">
		<g id="Headphone_11_">
			<g>
				<path class="st1" d="M1142.1,672.7c-27.2,17.8-43.4,48.2-43.4,80.7v59.8c0,4.8,3.9,8.7,8.7,8.7c4.8,0,8.7-3.9,8.7-8.7v-59.5&#10;&#9;&#9;&#9;&#9;&#9;c0-26,12.7-50.3,34.1-65c84.5-58.4,175,0.7,175,81v43.6c0,4.8,3.9,8.7,8.7,8.7c4.8,0,8.7-3.9,8.7-8.7v-43.6&#10;&#9;&#9;&#9;&#9;&#9;C1342.7,677.2,1239.7,608.7,1142.1,672.7z" style="fill: rgb(255, 255, 255);"/>
			</g>
			<g>
				<path class="st14" d="M1142.1,672.7c-27.2,17.8-43.4,48.2-43.4,80.7v59.8c0,4.8,3.9,8.7,8.7,8.7c4.8,0,8.7-3.9,8.7-8.7v-59.5&#10;&#9;&#9;&#9;&#9;&#9;c0-26,12.7-50.3,34.1-65c84.5-58.4,175,0.7,175,81v43.6c0,4.8,3.9,8.7,8.7,8.7c4.8,0,8.7-3.9,8.7-8.7v-43.6&#10;&#9;&#9;&#9;&#9;&#9;C1342.7,677.2,1239.7,608.7,1142.1,672.7z" style="fill: none; stroke: rgb(0, 0, 0); stroke-width: 3; stroke-miterlimit: 10;"/>
			</g>
		</g>
		<g id="Headphone_6_">
			<g>
				<path class="st18" d="M1111.8,795.8c-26.5,0-30.5,21.5-30.5,47.9c0,26.5,4,47.9,30.5,47.9c26.5,0,13.1-21.5,13.1-47.9&#10;&#9;&#9;&#9;&#9;&#9;C1124.8,817.3,1138.2,795.8,1111.8,795.8z M1332.2,795.8c-25,0-12.4,21.5-12.4,47.9c0,26.5-12.7,47.9,12.4,47.9&#10;&#9;&#9;&#9;&#9;&#9;c25,0,27.9-21.5,27.9-47.9C1360.1,817.3,1357.2,795.8,1332.2,795.8z" style="fill-rule: evenodd; clip-rule: evenodd; fill: rgb(184, 167, 210);"/>
			</g>
			<g>
				<path class="st14" d="M1111.8,795.8c-26.5,0-30.5,21.5-30.5,47.9c0,26.5,4,47.9,30.5,47.9c26.5,0,13.1-21.5,13.1-47.9&#10;&#9;&#9;&#9;&#9;&#9;C1124.8,817.3,1138.2,795.8,1111.8,795.8z M1332.2,795.8c-25,0-12.4,21.5-12.4,47.9c0,26.5-12.7,47.9,12.4,47.9&#10;&#9;&#9;&#9;&#9;&#9;c25,0,27.9-21.5,27.9-47.9C1360.1,817.3,1357.2,795.8,1332.2,795.8z" style="fill: none; stroke: rgb(0, 0, 0); stroke-width: 3; stroke-miterlimit: 10;"/>
			</g>
		</g>
		<g id="Headphone_4_">
			<g>
				<path class="st19" d="M1107.4,804.5v78.4c0,22.8,29.2,38.8,52.3,12.6V792C1136.6,765.7,1107.4,781.7,1107.4,804.5z&#10;&#9;&#9;&#9;&#9;&#9; M1281.7,804.5v90.9c23,26.3,52.3,10.3,52.3-12.5v-91C1310.9,765.7,1281.7,781.7,1281.7,804.5z" style="fill-rule: evenodd; clip-rule: evenodd; fill: rgb(243, 114, 69);"/>
			</g>
			<g>
				<path class="st14" d="M1107.4,804.5v78.4c0,22.8,29.2,38.8,52.3,12.6V792C1136.6,765.7,1107.4,781.7,1107.4,804.5z&#10;&#9;&#9;&#9;&#9;&#9; M1281.7,804.5v90.9c23,26.3,52.3,10.3,52.3-12.5v-91C1310.9,765.7,1281.7,781.7,1281.7,804.5z" style="fill: none; stroke: rgb(0, 0, 0); stroke-width: 3; stroke-miterlimit: 10;"/>
			</g>
		</g>
	</g>
<g transform="matrix(1, 0, 0, 1, 2.842170943040401e-14, 7.105427357601002e-15)">
		<g>
			<g>
				<g>
					<g>
						<g>
							<g>
								<g>
									<g>
										<path d="M50.3,613l-7.9-7.9c-0.8-0.8-0.8-1.8,0-2.6c0.8-0.8,1.9-0.8,2.6,0l7.9,7.9c0.8,0.8,0.8,1.8,0,2.6&#10;&#9;&#9;&#9;&#9;&#9;&#9;&#9;&#9;&#9;&#9;&#9;C52.2,613.8,51.1,613.8,50.3,613z"/>
									</g>
								</g>
							</g>
						</g>
					</g>
				</g>
				<g>
					<g>
						<g>
							<g>
								<g>
									<g>
										<path d="M42.4,613c-0.8-0.8-0.8-1.8,0-2.6l7.9-7.9c0.8-0.8,1.9-0.8,2.6,0c0.8,0.8,0.8,1.8,0,2.6L45,613&#10;&#9;&#9;&#9;&#9;&#9;&#9;&#9;&#9;&#9;&#9;&#9;C44.2,613.8,43.2,613.8,42.4,613z"/>
									</g>
								</g>
							</g>
						</g>
					</g>
				</g>
			</g>
		</g>
		<g>
			<g>
				<g>
					<g>
						<g>
							<g>
								<g>
									<g>
										<path d="M1169.3,943.9l-7.9-7.9c-0.8-0.8-0.8-1.8,0-2.6c0.8-0.8,1.9-0.8,2.6,0l7.9,7.9c0.8,0.8,0.8,1.8,0,2.6&#10;&#9;&#9;&#9;&#9;&#9;&#9;&#9;&#9;&#9;&#9;&#9;C1171.2,944.7,1170.1,944.7,1169.3,943.9z"/>
									</g>
								</g>
							</g>
						</g>
					</g>
				</g>
				<g>
					<g>
						<g>
							<g>
								<g>
									<g>
										<path d="M1161.4,943.9c-0.8-0.8-0.8-1.8,0-2.6l7.9-7.9c0.8-0.8,1.9-0.8,2.6,0c0.8,0.8,0.8,1.8,0,2.6l-7.9,7.9&#10;&#9;&#9;&#9;&#9;&#9;&#9;&#9;&#9;&#9;&#9;&#9;C1163.3,944.7,1162.2,944.7,1161.4,943.9z"/>
									</g>
								</g>
							</g>
						</g>
					</g>
				</g>
			</g>
		</g>
		<g>
			<g>
				<g>
					<g>
						<g>
							<g>
								<g>
									<g>
										<path d="M1272.5,371.9l10,4.9c0.9,0.4,1.3,1.4,1,2.3c-0.5,1.2-1.5,1.6-2.6,1.1l-10.1-4.9c-1-0.5-1.3-1.5-0.9-2.5&#10;&#9;&#9;&#9;&#9;&#9;&#9;&#9;&#9;&#9;&#9;&#9;C1270.5,371.8,1271.5,371.4,1272.5,371.9z"/>
									</g>
								</g>
							</g>
						</g>
					</g>
				</g>
				<g>
					<g>
						<g>
							<g>
								<g>
									<g>
										<path d="M1280,369.3c1,0.5,1.4,1.5,0.9,2.5l-4.9,10c-0.4,0.9-1.4,1.3-2.3,1c-1.2-0.4-1.6-1.5-1.1-2.6l4.9-10.1&#10;&#9;&#9;&#9;&#9;&#9;&#9;&#9;&#9;&#9;&#9;&#9;C1278,369.2,1279,368.8,1280,369.3z"/>
									</g>
								</g>
							</g>
						</g>
					</g>
				</g>
			</g>
		</g>
		<g>
			<g>
				<path d="M 717.5 909.700012 L 647.700012 909.700012" class="st1" style="fill: rgb(255, 255, 255);"/>
			</g>
			<g>
				<path d="M 647.700012 907.900024 H 717.500015 V 911.600024 H 647.700012 V 907.900024 Z"/>
			</g>
		</g>
		<g>
			<g>
				<path d="M 699.599976 919.099976 L 678.700012 919.099976" class="st1" style="fill: rgb(255, 255, 255);"/>
			</g>
			<g>
				<path d="M 678.700012 917.299988 H 699.700012 V 920.999988 H 678.700012 V 917.299988 Z"/>
			</g>
		</g>
		<g>
			<g>
				<path d="M 1351.5 68.5 L 1281.800049 68.5" class="st1" style="fill: rgb(255, 255, 255);"/>
			</g>
			<g>
				<path d="M 1281.800049 66.599998 H 1351.600052 V 70.299999 H 1281.800049 V 66.599998 Z"/>
			</g>
		</g>
		<g>
			<g>
				<path d="M 1333.699951 77.800003 L 1312.699951 77.800003" class="st1" style="fill: rgb(255, 255, 255);"/>
			</g>
			<g>
				<path d="M 1312.699951 76 H 1333.699951 V 79.7 H 1312.699951 V 76 Z"/>
			</g>
		</g>
		<g>
			<g>
				<path d="M 792.4 894 A 9.4 9.4 0 0 1 783 903.4 A 9.4 9.4 0 0 1 773.6 894 A 9.4 9.4 0 0 1 783 884.6 A 9.4 9.4 0 0 1 792.4 894 Z" class="st1" style="fill: rgb(255, 255, 255);"/>
			</g>
			<g>
				<path d="M783,905.2c-6.2,0-11.2-5-11.2-11.2c0-6.2,5-11.2,11.2-11.2c6.2,0,11.2,5,11.2,11.2C794.2,900.2,789.2,905.2,783,905.2z&#10;&#9;&#9;&#9;&#9;&#9; M783,886.5c-4.2,0-7.5,3.4-7.5,7.5c0,4.2,3.4,7.5,7.5,7.5c4.2,0,7.5-3.4,7.5-7.5C790.6,889.9,787.2,886.5,783,886.5z"/>
			</g>
		</g>
		<g>
			<g>
				<path class="st1" d="M1344,357.7c-3.1-5.7,0.3-12.7,6.7-13.8c3.9-0.7,7.9,1.3,9.7,4.8c3.1,5.7-0.3,12.7-6.7,13.8&#10;&#9;&#9;&#9;&#9;&#9;C1349.9,363.1,1345.9,361.2,1344,357.7z" style="fill: rgb(255, 255, 255);"/>
			</g>
			<g>
				<path d="M1346.9,343.4c6.8-3.7,15.2,0.4,16.5,8.1c0.8,4.6-1.5,9.4-5.7,11.6c-6.8,3.7-15.2-0.4-16.5-8.1&#10;&#9;&#9;&#9;&#9;&#9;C1340.4,350.3,1342.7,345.6,1346.9,343.4z M1353.3,360.7c5.4-0.8,8.2-6.6,5.5-11.3c-1.5-2.6-4.5-4.1-7.5-3.7&#10;&#9;&#9;&#9;&#9;&#9;c-5.3,0.8-8.2,6.6-5.5,11.3C1347.2,359.6,1350.3,361.1,1353.3,360.7z"/>
			</g>
		</g>
		<g>
			<g>
				<path d="M 159.099997 935.299988 A 9.4 9.4 0 0 1 149.699997 944.699987 A 9.4 9.4 0 0 1 140.299997 935.299988 A 9.4 9.4 0 0 1 149.699997 925.899988 A 9.4 9.4 0 0 1 159.099997 935.299988 Z" class="st1" style="fill: rgb(255, 255, 255);"/>
			</g>
			<g>
				<path d="M149.7,946.5c-6.2,0-11.2-5-11.2-11.2c0-6.2,5-11.2,11.2-11.2s11.2,5,11.2,11.2C161,941.5,155.9,946.5,149.7,946.5z&#10;&#9;&#9;&#9;&#9;&#9; M149.7,927.8c-4.2,0-7.5,3.4-7.5,7.5c0,4.2,3.4,7.5,7.5,7.5s7.5-3.4,7.5-7.5C157.3,931.1,153.9,927.8,149.7,927.8z"/>
			</g>
		</g>
		<g>
			<g>
				<path d="M 497.799988 504.399994 L 428 504.399994" class="st1" style="fill: rgb(255, 255, 255);"/>
			</g>
			<g>
				<path d="M495.9,506.3h-66.1c-1,0-1.8-0.8-1.8-1.8l0,0c0-1,0.8-1.8,1.8-1.8h66.1c1,0,1.8,0.8,1.8,1.8l0,0&#10;&#9;&#9;&#9;&#9;&#9;C497.8,505.5,496.9,506.3,495.9,506.3z"/>
			</g>
		</g>
		<g>
			<g>
				<path d="M 479.899994 513.799988 L 459 513.799988" class="st1" style="fill: rgb(255, 255, 255);"/>
			</g>
			<g>
				<path d="M478.1,515.7h-17.3c-1,0-1.8-0.8-1.8-1.8l0,0c0-1,0.8-1.8,1.8-1.8h17.3c1,0,1.8,0.8,1.8,1.8l0,0&#10;&#9;&#9;&#9;&#9;&#9;C479.9,514.8,479.1,515.7,478.1,515.7z"/>
			</g>
		</g>
		<g>
			<g>
				<path d="M 342.399994 919.299988 L 321.399994 919.299988" class="st1" style="fill: rgb(255, 255, 255);"/>
			</g>
			<g>
				<path d="M 321.399994 917.5 H 342.399994 V 921.2 H 321.399994 V 917.5 Z"/>
			</g>
		</g>
		<g>
			<g>
				<path d="M 372.600006 919.299988 L 351.700012 919.299988" class="st1" style="fill: rgb(255, 255, 255);"/>
			</g>
			<g>
				<path d="M 351.700012 917.5 H 372.700012 V 921.2 H 351.700012 V 917.5 Z"/>
			</g>
		</g>
		<g>
			<g>
				<path d="M 363.200012 928.299988 L 331.899994 928.299988" class="st1" style="fill: rgb(255, 255, 255);"/>
			</g>
			<g>
				<path d="M 331.899994 926.400024 H 363.199993 V 930.100024 H 331.899994 V 926.400024 Z"/>
			</g>
		</g>
		<g>
			<g>
				<path d="M 1258.599976 896.700012 L 1221.300049 896.700012" class="st1" style="fill: rgb(255, 255, 255);"/>
			</g>
			<g>
				<path d="M 1221.300049 894.799988 H 1258.600048 V 898.499988 H 1221.300049 V 894.799988 Z"/>
			</g>
		</g>
		<g>
			<g>
				<path d="M 1241.800049 905.599976 L 1186.099976 905.599976" class="st1" style="fill: rgb(255, 255, 255);"/>
			</g>
			<g>
				<path d="M 1186.099976 903.799988 H 1241.799976 V 907.499988 H 1186.099976 V 903.799988 Z"/>
			</g>
		</g>
		<g>
			<g>
				<g>
					<g>
						<g>
							<g>
								<g>
									<g>
										<path d="M724.1,873.5l-7.9-7.9c-0.8-0.8-0.8-1.8,0-2.6c0.8-0.8,1.9-0.8,2.6,0l7.9,7.9c0.8,0.8,0.8,1.8,0,2.6&#10;&#9;&#9;&#9;&#9;&#9;&#9;&#9;&#9;&#9;&#9;&#9;C725.9,874.3,724.9,874.3,724.1,873.5z"/>
									</g>
								</g>
							</g>
						</g>
					</g>
				</g>
				<g>
					<g>
						<g>
							<g>
								<g>
									<g>
										<path d="M716.1,873.5c-0.8-0.8-0.8-1.8,0-2.6l7.9-7.9c0.8-0.8,1.9-0.8,2.6,0c0.8,0.8,0.8,1.8,0,2.6l-7.9,7.9&#10;&#9;&#9;&#9;&#9;&#9;&#9;&#9;&#9;&#9;&#9;&#9;C718,874.3,716.9,874.3,716.1,873.5z"/>
									</g>
								</g>
							</g>
						</g>
					</g>
				</g>
			</g>
		</g>
		<g>
			<g>
				<path d="M 349.600006 401 L 279.899994 401" class="st1" style="fill: rgb(255, 255, 255);"/>
			</g>
			<g>
				<path d="M 279.899994 399.200012 H 349.699997 V 402.900012 H 279.899994 V 399.200012 Z"/>
			</g>
		</g>
		<g>
			<g>
				<path d="M 331.799988 410.399994 L 310.899994 410.399994" class="st1" style="fill: rgb(255, 255, 255);"/>
			</g>
			<g>
				<path d="M 310.899994 408.600006 H 331.899994 V 412.300006 H 310.899994 V 408.600006 Z"/>
			</g>
		</g>
		<g>
			<g>
				<g>
					<g>
						<g>
							<g>
								<g>
									<g>
										<path d="M356.2,364.8l-7.9-7.9c-0.7-0.7-0.8-1.8-0.2-2.5c0.8-1,2-1,2.8-0.2l7.9,7.9c0.8,0.8,0.8,1.8,0,2.6&#10;&#9;&#9;&#9;&#9;&#9;&#9;&#9;&#9;&#9;&#9;&#9;C358.1,365.6,357,365.6,356.2,364.8z"/>
									</g>
								</g>
							</g>
						</g>
					</g>
				</g>
				<g>
					<g>
						<g>
							<g>
								<g>
									<g>
										<path d="M348.3,364.8c-0.8-0.8-0.8-1.8,0-2.6l7.9-7.9c0.7-0.7,1.8-0.8,2.5-0.2c1,0.8,1,1.9,0.2,2.8l-7.9,7.9&#10;&#9;&#9;&#9;&#9;&#9;&#9;&#9;&#9;&#9;&#9;&#9;C350.2,365.6,349.1,365.6,348.3,364.8z"/>
									</g>
								</g>
							</g>
						</g>
					</g>
				</g>
			</g>
		</g>
		<g>
			<g>
				<g>
					<g>
						<g>
							<g>
								<g>
									<g>
										<path d="M471.7,571.4l8-7.9c0.8-0.8,1.9-0.8,2.6,0c0.8,0.8,0.8,1.9,0,2.6l-8,7.9c-0.8,0.8-1.9,0.8-2.6,0&#10;&#9;&#9;&#9;&#9;&#9;&#9;&#9;&#9;&#9;&#9;&#9;C470.9,573.2,470.9,572.2,471.7,571.4z"/>
									</g>
								</g>
							</g>
						</g>
					</g>
				</g>
				<g>
					<g>
						<g>
							<g>
								<g>
									<g>
										<path d="M471.8,563.5c0.8-0.8,1.8-0.8,2.6,0l7.9,8c0.6,0.6,0.7,1.7,0.2,2.4c-0.8,1-2,1.1-2.8,0.2l-7.9-8&#10;&#9;&#9;&#9;&#9;&#9;&#9;&#9;&#9;&#9;&#9;&#9;C470.9,565.3,471,564.3,471.8,563.5z"/>
									</g>
								</g>
							</g>
						</g>
					</g>
				</g>
			</g>
		</g>
		<g>
			<g>
				<g>
					<g>
						<g>
							<g>
								<g>
									<g>
										<path d="M372.8,548.4l8-7.9c0.8-0.8,1.9-0.8,2.6,0c0.8,0.8,0.8,1.9,0,2.6l-8,7.9c-0.6,0.6-1.7,0.7-2.4,0.2&#10;&#9;&#9;&#9;&#9;&#9;&#9;&#9;&#9;&#9;&#9;&#9;C372,550.4,372,549.2,372.8,548.4z"/>
									</g>
								</g>
							</g>
						</g>
					</g>
				</g>
				<g>
					<g>
						<g>
							<g>
								<g>
									<g>
										<path d="M372.9,540.5c0.8-0.8,1.8-0.8,2.6,0l7.9,8c0.1,0.9,0.1,1.5,0.2,2.4c-0.8,1-2,1.1-2.8,0.2l-7.9-8&#10;&#9;&#9;&#9;&#9;&#9;&#9;&#9;&#9;&#9;&#9;&#9;C372.1,542.3,372.1,541.3,372.9,540.5z"/>
									</g>
								</g>
							</g>
						</g>
					</g>
				</g>
			</g>
		</g>
		<g>
			<g>
				<g>
					<g>
						<g>
							<g>
								<g>
									<g>
										<path d="M196.2,947.4l-7-7c-0.7-0.7-0.7-1.6,0-2.3c0.7-0.7,1.6-0.7,2.3,0l7,7c0.7,0.7,0.7,1.6,0,2.3&#10;&#9;&#9;&#9;&#9;&#9;&#9;&#9;&#9;&#9;&#9;&#9;C197.8,948.1,196.9,948.1,196.2,947.4z"/>
									</g>
								</g>
							</g>
						</g>
					</g>
				</g>
				<g>
					<g>
						<g>
							<g>
								<g>
									<g>
										<path d="M189.3,947.4c-0.7-0.7-0.7-1.6,0-2.3l7-7c0.7-0.7,1.6-0.7,2.3,0c0.7,0.7,0.7,1.6,0,2.3l-7,7&#10;&#9;&#9;&#9;&#9;&#9;&#9;&#9;&#9;&#9;&#9;&#9;C190.9,948.1,189.9,948.1,189.3,947.4z"/>
									</g>
								</g>
							</g>
						</g>
					</g>
				</g>
			</g>
		</g>
		<g>
			<g>
				<path d="M 1230.700048 719.599976 A 9.4 9.4 0 0 1 1221.300049 728.999975 A 9.4 9.4 0 0 1 1211.900049 719.599976 A 9.4 9.4 0 0 1 1221.300049 710.199976 A 9.4 9.4 0 0 1 1230.700048 719.599976 Z" class="st1" style="fill: rgb(255, 255, 255);"/>
			</g>
			<g>
				<path d="M1221.3,730.9c-6.2,0-11.2-5-11.2-11.2c0-6.2,5-11.2,11.2-11.2c6.2,0,11.2,5,11.2,11.2&#10;&#9;&#9;&#9;&#9;&#9;C1232.5,725.8,1227.4,730.9,1221.3,730.9z M1221.3,712.1c-4.2,0-7.5,3.4-7.5,7.5c0,4.2,3.4,7.5,7.5,7.5c4.2,0,7.5-3.4,7.5-7.5&#10;&#9;&#9;&#9;&#9;&#9;C1228.8,715.5,1225.4,712.1,1221.3,712.1z"/>
			</g>
		</g>
		<g>
			<g>
				<g>
					<g>
						<g>
							<g>
								<g>
									<g>
										<path d="M1068.3,953.2l-7-7c-0.7-0.7-0.7-1.6,0-2.3c0.7-0.7,1.6-0.7,2.3,0l7,7c0.7,0.7,0.7,1.6,0,2.3&#10;&#9;&#9;&#9;&#9;&#9;&#9;&#9;&#9;&#9;&#9;&#9;C1069.9,953.9,1069,953.9,1068.3,953.2z"/>
									</g>
								</g>
							</g>
						</g>
					</g>
				</g>
				<g>
					<g>
						<g>
							<g>
								<g>
									<g>
										<path d="M1061.3,953.2c-0.7-0.7-0.7-1.6,0-2.3l7-7c0.7-0.7,1.6-0.7,2.3,0c0.7,0.7,0.7,1.6,0,2.3l-7,7&#10;&#9;&#9;&#9;&#9;&#9;&#9;&#9;&#9;&#9;&#9;&#9;C1063,953.9,1062,953.9,1061.3,953.2z"/>
									</g>
								</g>
							</g>
						</g>
					</g>
				</g>
			</g>
		</g>
		<g>
			<g>
				<path d="M 110.300001 65.900002 A 9.4 9.4 0 0 1 100.900002 75.300001 A 9.4 9.4 0 0 1 91.500002 65.900002 A 9.4 9.4 0 0 1 100.900002 56.500002 A 9.4 9.4 0 0 1 110.300001 65.900002 Z" class="st1" style="fill: rgb(255, 255, 255);"/>
			</g>
			<g>
				<path d="M100.9,77.1c-6.2,0-11.2-5-11.2-11.2c0-6.2,5-11.2,11.2-11.2s11.2,5,11.2,11.2C112.1,72.1,107.1,77.1,100.9,77.1z&#10;&#9;&#9;&#9;&#9;&#9; M100.9,58.4c-4.2,0-7.5,3.4-7.5,7.5c0,4.2,3.4,7.5,7.5,7.5s7.5-3.4,7.5-7.5C108.4,61.7,105,58.4,100.9,58.4z"/>
			</g>
		</g>
		<g>
			<g>
				<g>
					<g>
						<g>
							<g>
								<g>
									<g>
										<path d="M147.4,78l-7-7c-0.7-0.7-0.7-1.6,0-2.3c0.7-0.7,1.6-0.7,2.3,0l7,7c0.7,0.7,0.7,1.6,0,2.3&#10;&#9;&#9;&#9;&#9;&#9;&#9;&#9;&#9;&#9;&#9;&#9;C149,78.7,148.1,78.7,147.4,78z"/>
									</g>
								</g>
							</g>
						</g>
					</g>
				</g>
				<g>
					<g>
						<g>
							<g>
								<g>
									<g>
										<path d="M140.4,78c-0.7-0.7-0.7-1.6,0-2.3l7-7c0.7-0.7,1.6-0.7,2.3,0c0.7,0.7,0.7,1.6,0,2.3l-7,7&#10;&#9;&#9;&#9;&#9;&#9;&#9;&#9;&#9;&#9;&#9;&#9;C142,78.7,141.1,78.7,140.4,78z"/>
									</g>
								</g>
							</g>
						</g>
					</g>
				</g>
			</g>
		</g>
	</g>
</svg>